<svg width="137" height="39" viewBox="0 0 137 39" fill="none" xmlns="http://www.w3.org/2000/svg">
<path d="M35.55 19C35.53 16.35 37.75 15.08 37.83 15.02C37.3859 14.3991 36.8051 13.8886 36.1323 13.528C35.4596 13.1673 34.7129 12.9661 33.95 12.94C32.32 12.76 30.75 13.9 29.91 13.9C29.07 13.9 27.78 12.96 26.4 12.98C25.51 13.0075 24.6422 13.264 23.8802 13.7247C23.1182 14.1854 22.4879 14.8347 22.05 15.61C20.16 18.83 21.57 23.53 23.37 26.14C24.27 27.41 25.32 28.84 26.7 28.79C28.04 28.72 28.55 27.93 30.17 27.93C31.79 27.93 32.26 28.79 33.66 28.74C35.11 28.72 36.01 27.47 36.89 26.18C37.53 25.28 38.03 24.27 38.36 23.21C38.36 23.21 35.59 22.18 35.55 19.01V19ZM32.91 11.23C33.3038 10.7712 33.6029 10.239 33.79 9.66399C33.9771 9.08902 34.0484 8.4827 34 7.88C32.7971 8.00652 31.6847 8.57701 30.88 9.48C30.4908 9.91676 30.1916 10.426 29.9994 10.9785C29.8072 11.531 29.7259 12.116 29.76 12.7C30.95 12.78 32.16 12.13 32.92 11.23H32.91ZM49.29 17.71L45.73 28.61H47.55L48.54 25.41H52.14L53.17 28.61H55.06L51.48 17.71H49.28H49.29ZM48.87 24.06L49.79 21.21L50.32 19.16H50.36C50.62 20.23 50.82 20.93 50.91 21.21L51.83 24.06H48.87ZM60.87 20.58C59.67 20.58 58.79 21.04 58.2 21.98H58.15L58.05 20.73H56.48C56.53 21.61 56.55 22.48 56.55 23.31V31.79H58.31V27.67C58.77 28.42 59.51 28.79 60.57 28.79C61.49 28.8 62.39 28.43 63.02 27.76C63.4044 27.3289 63.6995 26.8259 63.8883 26.2801C64.0772 25.7343 64.1559 25.1564 64.12 24.58C64.12 23.38 63.82 22.42 63.18 21.69C62.9132 21.3346 62.5652 21.0484 62.165 20.8553C61.7648 20.6621 61.3242 20.5677 60.88 20.58H60.87ZM61.82 26.64C61.46 27.14 60.88 27.44 60.26 27.41C59.73 27.43 59.23 27.21 58.88 26.81C58.528 26.414 58.3387 25.8997 58.35 25.37V24.06C58.35 23.88 58.38 23.7 58.44 23.53C58.5512 23.0612 58.8279 22.6483 59.2192 22.3672C59.6106 22.0861 60.0902 21.9557 60.57 22C61.09 22.06 61.55 22.34 61.87 22.76C62.23 23.31 62.41 23.97 62.39 24.64C62.39 25.35 62.2 26.05 61.82 26.65V26.64ZM70.02 20.58C68.82 20.58 67.94 21.04 67.35 21.98H67.3L67.2 20.73H65.64C65.68 21.61 65.7 22.48 65.7 23.31V31.79H67.46V27.67C67.92 28.42 68.69 28.79 69.72 28.79C70.65 28.8 71.54 28.43 72.18 27.76C72.9478 26.8843 73.3426 25.743 73.28 24.58C73.28 23.38 72.97 22.42 72.33 21.69C72.0599 21.3383 71.7112 21.0546 71.3118 20.8619C70.9124 20.6691 70.4734 20.5726 70.03 20.58H70.02ZM70.95 26.64C70.59 27.14 70 27.44 69.39 27.41C68.86 27.43 68.35 27.21 68.01 26.81C67.658 26.414 67.4687 25.8997 67.48 25.37V24.06C67.48 23.88 67.51 23.7 67.57 23.53C67.6812 23.0612 67.9579 22.6483 68.3492 22.3672C68.7406 22.0861 69.2202 21.9557 69.7 22C70.22 22.06 70.68 22.34 71 22.76C71.36 23.31 71.54 23.97 71.52 24.64C71.5 25.47 71.32 26.14 70.95 26.65V26.64ZM80.75 22.33C80.1802 22.1302 79.6415 21.8508 79.15 21.5C78.9981 21.3767 78.8746 21.2221 78.788 21.0467C78.7013 20.8713 78.6535 20.6793 78.6478 20.4838C78.6421 20.2882 78.6786 20.0937 78.755 19.9136C78.8313 19.7335 78.9456 19.5719 79.09 19.44C79.51 19.11 80.03 18.94 80.56 18.98C81.2907 18.9697 82.0124 19.1415 82.66 19.48L83.11 18.06C82.3315 17.6855 81.4733 17.507 80.61 17.54C79.48 17.54 78.58 17.82 77.91 18.39C77.5814 18.6518 77.3169 18.9852 77.1367 19.3647C76.9564 19.7442 76.8652 20.1599 76.87 20.58C76.87 21.96 77.84 22.98 79.77 23.71C80.3202 23.8912 80.8321 24.1726 81.28 24.54C81.58 24.84 81.75 25.24 81.75 25.66C81.77 26.12 81.56 26.56 81.2 26.84C80.82 27.14 80.32 27.28 79.64 27.28C78.74 27.28 77.86 27.05 77.09 26.6L76.68 28.04C77.4 28.5 78.34 28.72 79.53 28.72C80.8 28.72 81.81 28.39 82.53 27.76C83.18 27.19 83.55 26.36 83.53 25.5C83.55 24.81 83.3 24.14 82.84 23.62C82.2507 23.0414 81.5403 22.6008 80.76 22.33H80.75ZM87.43 18.78L85.7 19.31V20.75H84.53V22.07H85.7V26.03C85.7 27.01 85.9 27.73 86.29 28.15C86.72 28.59 87.32 28.82 87.93 28.79C88.4 28.8 88.87 28.74 89.32 28.59L89.27 27.26C89.01 27.31 88.75 27.34 88.48 27.34C87.8 27.34 87.45 26.86 87.45 25.9V22.09H89.4V20.78H87.45V18.78H87.43ZM94.32 20.58C93.12 20.58 92.15 20.98 91.42 21.74C90.6833 22.5607 90.2989 23.6383 90.35 24.74C90.3166 25.7988 90.6845 26.831 91.38 27.63C92.08 28.39 93 28.77 94.17 28.77C95.37 28.77 96.34 28.37 97.09 27.57C97.8115 26.7454 98.1875 25.6746 98.14 24.58C98.14 23.38 97.81 22.46 97.13 21.72C96.7687 21.3423 96.3315 21.0454 95.8472 20.8489C95.3628 20.6524 94.8423 20.5608 94.32 20.58ZM95.83 26.51C95.44 27.15 94.91 27.47 94.25 27.47C93.9224 27.4767 93.5994 27.3925 93.3169 27.2265C93.0345 27.0605 92.8036 26.8194 92.65 26.53C92.3245 25.9649 92.1586 25.322 92.17 24.67C92.14 24.01 92.31 23.36 92.65 22.79C92.98 22.19 93.6 21.84 94.28 21.85C94.94 21.83 95.55 22.2 95.86 22.79C96.179 23.3591 96.3441 24.0016 96.3388 24.654C96.3335 25.3064 96.1582 25.9461 95.83 26.51ZM103.45 20.58C102.99 20.58 102.55 20.72 102.18 20.99C101.768 21.3091 101.461 21.7446 101.3 22.24H101.26L101.19 20.74H99.65C99.7 21.48 99.7 22.31 99.7 23.21V28.59H101.45V24.47C101.43 23.92 101.59 23.38 101.89 22.92C102.22 22.46 102.77 22.19 103.34 22.22C103.52 22.22 103.71 22.24 103.89 22.26V20.6L103.45 20.58ZM108.5 20.56C107.968 20.5392 107.439 20.6433 106.954 20.8638C106.47 21.0843 106.044 21.4152 105.71 21.83C105.036 22.6622 104.684 23.7096 104.72 24.78C104.72 25.98 105.07 26.95 105.78 27.68C106.48 28.39 107.44 28.74 108.68 28.74C109.58 28.77 110.48 28.61 111.33 28.26L111.04 27.06C110.36 27.31 109.63 27.44 108.89 27.43C108.266 27.4596 107.652 27.2644 107.16 26.88C106.66 26.43 106.38 25.78 106.39 25.11H111.68C111.73 24.85 111.75 24.59 111.75 24.32C111.779 23.4439 111.534 22.5807 111.05 21.85C110.5 20.99 109.64 20.55 108.5 20.55V20.56ZM106.44 23.84C106.47 23.34 106.65 22.87 106.96 22.48C107.28 22.02 107.81 21.75 108.36 21.76C108.93 21.72 109.47 22 109.77 22.48C110.01 22.88 110.14 23.35 110.12 23.82L106.44 23.84ZM50.36 13.16C50.96 12.68 51.24 11.96 51.24 10.99C51.24 10.14 50.98 9.48 50.43 9.02C49.94 8.6 49.22 8.41 48.28 8.41C47.78 8.41 47.28 8.44 46.78 8.51V13.77C47.21 13.82 47.63 13.84 48.06 13.84C49.04 13.84 49.81 13.62 50.36 13.16ZM47.64 9.13C47.87 9.08 48.11 9.06 48.34 9.06C48.98 9.06 49.48 9.24 49.81 9.56C50.17 9.96 50.35 10.48 50.31 11.01C50.31 11.71 50.14 12.24 49.77 12.61C49.4 12.98 48.89 13.16 48.23 13.16C48.03 13.16 47.83 13.16 47.64 13.14V9.13ZM53.96 9.85C53.695 9.83936 53.4307 9.88461 53.1843 9.98281C52.938 10.081 52.715 10.23 52.53 10.42C52.17 10.82 51.99 11.35 52.01 11.89C51.99 12.41 52.17 12.92 52.51 13.31C52.86 13.69 53.36 13.9 53.87 13.88C54.41 13.9 54.93 13.68 55.3 13.28C55.66 12.88 55.85 12.36 55.83 11.82C55.8455 11.301 55.6673 10.7948 55.33 10.4C55.1535 10.2167 54.9401 10.0729 54.704 9.97809C54.4678 9.88328 54.2143 9.83963 53.96 9.85ZM54.68 12.78C54.6055 12.9172 54.4959 13.0321 54.3623 13.1129C54.2288 13.1938 54.0761 13.2376 53.92 13.24C53.7575 13.2427 53.5974 13.2013 53.4566 13.1203C53.3157 13.0393 53.1994 12.9217 53.12 12.78C52.96 12.51 52.88 12.18 52.89 11.87C52.88 11.54 52.96 11.22 53.13 10.95C53.28 10.65 53.59 10.47 53.92 10.49C54.24 10.48 54.54 10.66 54.68 10.95C54.85 11.22 54.93 11.55 54.93 11.87C54.94 12.19 54.86 12.51 54.68 12.78ZM58.39 13.79L58.94 12.11C59.08 11.7 59.18 11.28 59.25 10.86H59.27C59.36 11.27 59.45 11.69 59.57 12.11L60.08 13.79H60.88L62.1 9.94H61.25L60.76 11.74C60.66 12.19 60.56 12.61 60.5 13H60.48C60.39 12.59 60.3 12.17 60.18 11.73L59.64 9.93H58.94L58.39 11.78C58.24 12.28 58.13 12.68 58.06 13H58.04C57.98 12.61 57.89 12.2 57.78 11.76L57.34 9.92H56.44L57.58 13.77H58.39V13.79ZM66.36 13.79V11.49C66.36 10.92 66.21 10.51 65.9 10.22C65.7814 10.104 65.6405 10.0131 65.4858 9.95298C65.3311 9.89283 65.1659 9.86461 65 9.87C64.7506 9.86537 64.5043 9.92561 64.2851 10.0448C64.066 10.164 63.8816 10.3381 63.75 10.55H63.73L63.68 9.96H62.91C62.94 10.36 62.94 10.73 62.94 11.06V13.81H63.81V11.5C63.81 11.26 63.9 11.03 64.06 10.85C64.21 10.65 64.45 10.55 64.69 10.56C65.22 10.56 65.49 10.91 65.49 11.59V13.8H66.36V13.79ZM67.61 8.17H68.49V13.79H67.61V8.17ZM71.47 9.85C71.2066 9.84077 70.9443 9.88671 70.6997 9.98487C70.4552 10.083 70.2339 10.2312 70.05 10.42C69.69 10.82 69.5 11.35 69.52 11.89C69.51 12.41 69.69 12.92 70.02 13.31C70.38 13.69 70.89 13.9 71.41 13.88C71.95 13.9 72.47 13.68 72.83 13.28C73.19 12.88 73.37 12.36 73.33 11.82C73.3455 11.301 73.1673 10.7948 72.83 10.4C72.6546 10.218 72.4429 10.0749 72.2086 9.98016C71.9743 9.8854 71.7226 9.84105 71.47 9.85ZM72.22 12.78C72.1473 12.9208 72.0367 13.0385 71.9006 13.1198C71.7645 13.2011 71.6085 13.2427 71.45 13.24C71.2892 13.2409 71.1312 13.1987 70.9922 13.1178C70.8533 13.0369 70.7386 12.9202 70.66 12.78C70.5 12.51 70.41 12.18 70.42 11.87C70.4 11.54 70.48 11.22 70.66 10.95C70.81 10.65 71.12 10.47 71.46 10.49C71.6191 10.4909 71.775 10.534 71.9121 10.6148C72.0491 10.6956 72.1622 10.8112 72.24 10.95C72.41 11.22 72.49 11.55 72.48 11.87C72.47 12.19 72.38 12.5 72.22 12.78ZM77.27 12.88V11.45C77.27 10.38 76.77 9.85 75.73 9.85C75.26 9.83 74.8 9.95 74.39 10.18L74.57 10.75C74.87 10.55 75.22 10.45 75.57 10.46C76.13 10.46 76.39 10.73 76.39 11.23V11.3C75.67 11.3 75.09 11.4 74.7 11.67C74.32 11.89 74.1 12.3 74.1 12.74C74.0967 12.8966 74.1263 13.0522 74.1869 13.1967C74.2475 13.3412 74.3377 13.4714 74.4517 13.5788C74.5658 13.6863 74.7011 13.7686 74.8489 13.8205C74.9967 13.8723 75.1538 13.8926 75.31 13.88C75.76 13.9 76.18 13.7 76.46 13.35H76.48L76.54 13.79H77.34C77.266 13.4893 77.2423 13.1784 77.27 12.87V12.88ZM76.41 12.48L76.39 12.63C76.3482 12.8143 76.2418 12.9775 76.09 13.09C75.937 13.2048 75.7513 13.2679 75.56 13.27C75.4827 13.2744 75.4053 13.2624 75.3329 13.2349C75.2605 13.2073 75.1948 13.1647 75.14 13.11C75.0806 13.0494 75.034 12.9774 75.003 12.8984C74.9721 12.8193 74.9575 12.7348 74.96 12.65C74.96 12.13 75.45 11.87 76.41 11.87V12.47V12.48ZM79.91 13.88C80.1624 13.8966 80.4141 13.8392 80.6344 13.7149C80.8546 13.5905 81.0338 13.4047 81.15 13.18H81.17L81.22 13.79H81.99C81.96 13.46 81.94 13.14 81.94 12.74V8.17H81.06V10.37C80.85 10.03 80.49 9.85 79.96 9.85C79.5 9.85 79.06 10.05 78.76 10.4C78.42 10.83 78.24 11.36 78.26 11.9C78.23 12.42 78.4 12.93 78.72 13.33C79.01 13.68 79.44 13.88 79.9 13.88H79.91ZM79.41 10.9C79.59 10.65 79.88 10.5 80.19 10.53C80.39 10.53 80.61 10.6 80.76 10.75C80.92 10.88 81.03 11.07 81.06 11.27C81.0836 11.358 81.0937 11.449 81.09 11.54V12.17C81.09 12.43 81 12.67 80.85 12.87C80.7684 12.9728 80.6628 13.0539 80.5425 13.1062C80.4221 13.1585 80.2908 13.1804 80.16 13.17C80.0144 13.1709 79.8705 13.139 79.739 13.0766C79.6074 13.0143 79.4915 12.9232 79.4 12.81C79.21 12.54 79.12 12.21 79.13 11.89C79.12 11.54 79.22 11.19 79.42 10.9H79.41ZM86.97 13.88C87.51 13.9 88.03 13.68 88.39 13.28C88.75 12.88 88.93 12.36 88.9 11.82C88.9155 11.301 88.7373 10.7948 88.4 10.4C88.2211 10.2102 88.0035 10.0611 87.762 9.96278C87.5204 9.86444 87.2606 9.81916 87 9.83C86.7366 9.82077 86.4743 9.86671 86.2297 9.96487C85.9852 10.063 85.7639 10.2112 85.58 10.4C85.22 10.8 85.03 11.33 85.05 11.87C85.03 12.39 85.21 12.89 85.55 13.29C85.91 13.69 86.42 13.9 86.95 13.88H86.97ZM86.2 10.95C86.35 10.65 86.66 10.47 86.99 10.49C87.31 10.48 87.61 10.66 87.76 10.95C87.92 11.22 88.01 11.55 88 11.87C88 12.19 87.92 12.51 87.76 12.78C87.6847 12.9187 87.5735 13.0345 87.438 13.1155C87.3025 13.1964 87.1478 13.2394 86.99 13.24C86.8292 13.2409 86.6712 13.1987 86.5322 13.1178C86.3933 13.0369 86.2786 12.9202 86.2 12.78C86.04 12.51 85.95 12.18 85.96 11.87C85.96 11.54 86.05 11.23 86.2 10.95ZM90.83 13.79V11.49C90.83 11.25 90.91 11.02 91.07 10.84C91.23 10.64 91.47 10.54 91.71 10.55C92.24 10.55 92.5 10.9 92.5 11.58V13.79H93.38V11.49C93.41 11.03 93.25 10.57 92.94 10.22C92.8214 10.104 92.6805 10.0131 92.5258 9.95298C92.3711 9.89283 92.2059 9.86461 92.04 9.87C91.76 9.87 91.48 9.94 91.24 10.09C91.06 10.2 90.91 10.36 90.81 10.55H90.79L90.74 9.96H89.98C90 10.36 90 10.73 90 11.06V13.81H90.83V13.79ZM98.69 10.57V9.94H97.72V8.98L96.87 9.24V9.94H96.3V10.57H96.87V12.52C96.87 13 96.95 13.35 97.15 13.57C97.37 13.78 97.66 13.89 97.96 13.87C98.19 13.89 98.42 13.86 98.64 13.79L98.62 13.14C98.49 13.16 98.36 13.18 98.22 13.18C97.9 13.18 97.72 12.94 97.72 12.46V10.57H98.69ZM100.51 11.47C100.51 11.37 100.52 11.27 100.55 11.17C100.65 10.79 101 10.54 101.39 10.55C101.91 10.55 102.18 10.9 102.18 11.6V13.81H103.06V11.51C103.09 11.04 102.93 10.58 102.62 10.22C102.502 10.1025 102.362 10.0107 102.207 9.95047C102.052 9.89023 101.886 9.86282 101.72 9.87C101.24 9.85 100.79 10.09 100.55 10.51H100.53V8.17H99.65V13.79H100.53V11.47H100.51ZM107.29 13.64L107.16 13.04C106.82 13.18 106.46 13.24 106.11 13.22C105.8 13.24 105.5 13.14 105.25 12.96C104.99 12.74 104.85 12.42 104.88 12.08H107.48C107.51 11.95 107.52 11.82 107.51 11.69C107.53 11.26 107.41 10.84 107.16 10.49C107.019 10.2869 106.828 10.1233 106.606 10.0148C106.383 9.90628 106.137 9.85643 105.89 9.87C105.36 9.85 104.85 10.07 104.53 10.49C104.2 10.89 104.03 11.41 104.04 11.93C104.02 12.46 104.21 12.97 104.57 13.35C104.95 13.72 105.47 13.91 106 13.88C106.44 13.88 106.88 13.81 107.3 13.64H107.29ZM105.14 10.79C105.29 10.57 105.54 10.44 105.82 10.44C106.1 10.42 106.36 10.55 106.5 10.79C106.62 10.99 106.68 11.22 106.68 11.45H104.88C104.91 11.21 105 10.99 105.14 10.79ZM129.9 0H6.62C2.97 0 0.01 2.53 0 5.65V32.85C0 35.99 2.98 38.53 6.65 38.53H129.92C133.59 38.53 136.57 35.99 136.57 32.86V5.65C136.54 2.52 133.57 0 129.9 0ZM135.16 32.86C135.14 35.38 132.75 37.42 129.79 37.43H6.52C3.56 37.43 1.17 35.38 1.16 32.86V5.65C1.17 3.13 3.57 1.1 6.52 1.09H129.79C132.75 1.11 135.14 3.15 135.16 5.67V32.86Z" fill="white"/>
</svg>
