<svg width="95" height="94" viewBox="0 0 95 94" fill="none" xmlns="http://www.w3.org/2000/svg">
<g clip-path="url(#clip0_4301_1017)">
<path d="M51.7297 62.1224L58.0115 56.2223L55.5175 55.759C54.3138 55.5171 53.4478 54.1207 53.4478 52.8929V47.4214H47.6151H41.7825V52.8929C41.7825 54.1208 40.9164 55.5172 39.7127 55.759L37.2188 56.2223L43.5005 62.1224C45.8133 64.295 49.4168 64.295 51.7297 62.1224Z" fill="#CCDFED"/>
<path d="M48.0938 47.4214V55.1936C48.0938 56.4213 48.9598 57.8178 50.1635 58.0597L55.0829 58.9721L58.0106 56.2223L55.5166 55.759C54.3128 55.5171 53.4469 54.1207 53.4469 52.8929V47.4214H48.0938Z" fill="#BAD5E5"/>
<path d="M64.888 56.737L56.0208 55.0899C55.6954 55.0295 55.3595 55.1078 55.0945 55.306L47.6079 60.9015L40.1213 55.3058C39.8563 55.1077 39.5204 55.0293 39.195 55.0898L30.3278 56.7369C25.8673 58.0502 22.8047 62.1445 22.8047 66.7943V77.4227C22.8047 78.6393 23.7909 79.6255 25.0075 79.6255H70.2082C71.4248 79.6255 72.411 78.6393 72.411 77.4227V66.7945C72.4111 62.1447 69.3485 58.0503 64.888 56.737Z" fill="#3D6687"/>
<path d="M64.8814 56.7369L56.0142 55.0898C55.6889 55.0293 55.3529 55.1077 55.0879 55.3058L51.1562 58.2445L59.5947 59.812C64.0552 61.1254 67.1177 62.3573 67.1177 67.0072V79.6255H70.2018C71.4183 79.6255 72.4045 78.6393 72.4045 77.4227V66.7943C72.4045 62.1445 69.3419 58.0502 64.8814 56.7369Z" fill="#3D6687"/>
<path d="M36.6484 55.5624L41.5013 62.3531C41.867 62.8648 42.5388 63.0538 43.1176 62.808L47.6056 60.9015L40.1191 55.3058C39.854 55.1077 39.5181 55.0293 39.1927 55.0898L36.6484 55.5624Z" fill="#3D6687"/>
<path d="M58.5666 55.5624L53.7137 62.3531C53.348 62.8648 52.6762 63.0538 52.0974 62.808L47.6094 60.9015L55.0959 55.3058C55.361 55.1077 55.6969 55.0293 56.0223 55.0898L58.5666 55.5624Z" fill="#3D6687"/>
<path d="M47.6137 14.6255C38.2052 14.6255 30.5781 21.1344 30.5781 24.8123C30.5781 28.4903 38.2052 31.1186 47.6137 31.1186C57.0222 31.1186 64.6493 28.4903 64.6493 24.8123C64.6493 21.1344 57.0222 14.6255 47.6137 14.6255Z" fill="#13B89B"/>
<path d="M47.6085 14.6255C46.6943 14.6255 45.7971 14.6877 44.9219 14.802C53.0537 15.8643 59.2709 21.4917 59.2709 24.8123C59.2709 28.1329 53.0537 30.5976 44.9219 31.0452C45.7971 31.0933 46.6943 31.1185 47.6085 31.1185C57.017 31.1185 64.644 28.4902 64.644 24.8122C64.644 21.1342 57.017 14.6255 47.6085 14.6255Z" fill="#13B89B"/>
<path d="M59.7854 35.0807H59.008V34.1676V31.9853C59.008 28.9039 57.7429 25.9179 55.4078 23.9074C53.5772 22.331 41.6316 22.331 39.8008 23.9074C37.4658 25.9179 36.2007 28.9039 36.2007 31.9853V34.1676V35.0807H35.4233C34.2833 35.0807 33.3594 36.0047 33.3594 37.1445V39.4317C33.3594 40.5716 34.2835 41.4956 35.4233 41.4956H36.2039C36.2683 44.4909 37.5269 47.374 39.8008 49.332C41.6316 50.9084 44.205 52.2843 47.6043 52.3222C51.0037 52.2842 53.577 50.9083 55.4077 49.332C57.6817 47.374 58.9404 44.4909 59.0047 41.4956H59.7853C60.9252 41.4956 61.8492 40.5715 61.8492 39.4317V37.1445C61.8494 36.0047 60.9253 35.0807 59.7854 35.0807Z" fill="#CCDFED"/>
<path d="M59.7906 35.0805H59.0131V34.1675V31.985C59.0131 28.9036 57.748 25.9177 55.413 23.9071C54.2605 22.9147 49.0994 22.5473 44.9766 22.8045C47.4024 22.9559 49.4689 23.3233 50.1471 23.9071C52.4822 25.9177 53.7472 28.9036 53.7472 31.985V34.1675L53.7442 41.4953C53.6798 44.4907 52.4212 47.3738 50.1472 49.3318C48.823 50.4721 47.1098 51.5071 44.9767 52.0071C45.7924 52.1982 46.6692 52.3115 47.6096 52.322C51.009 52.2841 53.5823 50.9081 55.413 49.3318C57.687 47.3738 58.9457 44.4907 59.01 41.4953H59.7906C60.9305 41.4953 61.8545 40.5712 61.8545 39.4315V37.1443C61.8546 36.0046 60.9305 35.0805 59.7906 35.0805Z" fill="#BAD5E5"/>
<path d="M34.4766 28.2067V35.3126C34.4766 35.3126 36.2209 35.2731 37.3418 36.3825C37.5752 36.6135 37.972 36.4447 37.972 36.1162V30.8539H57.2467V36.1162C57.2467 36.4447 57.6435 36.6135 57.8769 36.3825C58.9978 35.2731 60.7421 35.3126 60.7421 35.3126V28.2067C60.7421 23.8055 34.4766 23.8055 34.4766 28.2067Z" fill="#13B89B"/>
<path d="M47.6094 33.9956C40.3563 33.9956 34.4766 31.7444 34.4766 28.9673H60.7421C60.7421 31.7444 54.8624 33.9956 47.6094 33.9956Z" fill="#13B89B"/>
<path d="M34.4766 25.477V28.9679H60.7421V25.5136C60.7421 24.5767 60.1074 23.7597 59.1995 23.5278C56.7692 22.9068 51.8264 21.8199 46.9946 21.8179C42.5418 21.8161 38.183 22.8825 35.9719 23.5038C35.0873 23.7525 34.4766 24.5583 34.4766 25.477Z" fill="#13B89B"/>
<path d="M47.6075 60.9019L44.0781 62.401L46.1415 64.7996H49.0736L51.137 62.401L47.6075 60.9019Z" fill="#E1EFFB"/>
<path d="M49.0736 64.7993H47.6075H46.1415L44.0781 79.6257H51.137L49.0736 64.7993Z" fill="#E1EFFB"/>
<path d="M61.0077 74.6842H55.8404C55.4972 74.6842 55.2188 74.4059 55.2188 74.0625V71.3097C55.2188 70.9664 55.497 70.688 55.8404 70.688H61.0077C61.351 70.688 61.6294 70.9663 61.6294 71.3097V74.0625C61.6294 74.4058 61.3511 74.6842 61.0077 74.6842Z" fill="#3D6687"/>
<path d="M39.3827 74.6842H34.2154C33.8722 74.6842 33.5938 74.4059 33.5938 74.0625V71.3097C33.5938 70.9664 33.872 70.688 34.2154 70.688H39.3827C39.726 70.688 40.0044 70.9663 40.0044 71.3097V74.0625C40.0044 74.4058 39.726 74.6842 39.3827 74.6842Z" fill="#3D6687"/>
<path d="M24.7947 63.2332C25.7636 64.0145 27.1824 63.8622 27.9637 62.8933L29.0315 61.569C29.8128 60.5999 29.6606 59.1812 28.6917 58.4L27.9261 57.7827C26.0936 58.8724 24.6482 60.4918 23.7656 62.4034L24.7947 63.2332Z" fill="#13B89B"/>
<path d="M71.4528 62.4034C70.5704 60.4918 69.125 58.8724 67.2923 57.7827L66.5267 58.4C65.5578 59.1812 65.4055 60.6001 66.1868 61.569L67.2546 62.8933C68.0359 63.8622 69.4547 64.0145 70.4236 63.2332L71.4528 62.4034Z" fill="#13B89B"/>
<path d="M65.3093 69.7065C64.7674 69.7065 64.3281 70.1458 64.3281 70.6878V79.6251H66.2906V70.6878C66.2904 70.1458 65.8512 69.7065 65.3093 69.7065Z" fill="#3D6687"/>
<path d="M29.9187 69.7065C29.3768 69.7065 28.9375 70.1458 28.9375 70.6878V79.6251H30.8999V70.6878C30.8999 70.1458 30.4607 69.7065 29.9187 69.7065Z" fill="#3D6687"/>
</g>
<defs>
<clipPath id="clip0_4301_1017">
<rect width="65" height="65" fill="white" transform="translate(15.1094 14.6255)"/>
</clipPath>
</defs>
</svg>
