<svg width="95" height="95" viewBox="0 0 95 95" fill="none" xmlns="http://www.w3.org/2000/svg">
<g clip-path="url(#clip0_4301_1021)">
<path d="M70.4814 80.5798H24.7468C23.6872 80.5798 22.8281 79.7208 22.8281 78.6612V23.7707C22.8281 22.7111 23.6872 21.8521 24.7468 21.8521H70.4814C71.541 21.8521 72.4 22.7111 72.4 23.7707V78.6613C72.4 79.7208 71.541 80.5798 70.4814 80.5798Z" fill="#3D6687"/>
<path d="M70.4824 21.8521H64.9844V80.5798H70.4824C71.5419 80.5798 72.401 79.7209 72.401 78.6612V23.7706C72.401 22.711 71.5419 21.8521 70.4824 21.8521Z" fill="#0C5177"/>
<path d="M65.4972 76.0635H29.7351C28.7251 76.0635 27.9062 75.2447 27.9062 74.2347V21.8521H67.3261V74.2347C67.326 75.2447 66.5072 76.0635 65.4972 76.0635Z" fill="#EEF8FF"/>
<path d="M59.9141 21.8521V76.0636H65.5018C66.5118 76.0636 67.3306 75.2448 67.3306 74.2348V21.8521H59.9141Z" fill="#BAD5E5"/>
<path d="M51.3927 18.9181V16.6077C51.3927 15.3323 50.3588 14.2983 49.0834 14.2983H46.1486C44.8732 14.2983 43.8393 15.3323 43.8393 16.6077V18.9181H36.1438C35.8486 18.9181 35.6094 19.1573 35.6094 19.4525V24.973C35.6094 25.2681 35.8486 25.5074 36.1438 25.5074H59.0882C59.3834 25.5074 59.6226 25.2681 59.6226 24.973V19.4525C59.6226 19.1573 59.3834 18.9181 59.0882 18.9181H51.3927Z" fill="#15B7A0"/>
<path d="M59.0914 18.918H52.1328V25.5073H59.0914C59.3866 25.5073 59.6258 25.268 59.6258 24.9729V19.4524C59.6258 19.1572 59.3866 18.918 59.0914 18.918Z" fill="#119E8A"/>
<path d="M40.8635 45.6375C40.4149 45.315 39.7897 45.417 39.4671 45.8654L36.1501 50.4768L34.2413 48.4227C33.8651 48.0178 33.232 47.9947 32.8273 48.3708C32.4225 48.7469 32.3993 49.38 32.7754 49.7848L35.5158 52.7338C35.7057 52.9382 35.9716 53.0533 36.2487 53.0533C36.2695 53.0533 36.2905 53.0527 36.3113 53.0514C36.6106 53.0326 36.8858 52.8806 37.061 52.6371L41.0913 47.034C41.4142 46.5853 41.312 45.9602 40.8635 45.6375Z" fill="#15B7A0"/>
<path d="M61.722 62.0591H45.6724C45.1198 62.0591 44.6719 62.507 44.6719 63.0596C44.6719 63.6123 45.1198 64.0602 45.6724 64.0602H61.722C62.2746 64.0602 62.7225 63.6123 62.7225 63.0596C62.7225 62.507 62.2746 62.0591 61.722 62.0591Z" fill="#3D6687"/>
<path d="M40.8634 59.4461C40.4148 59.1235 39.7895 59.2257 39.4669 59.6741L36.15 64.2854L34.2413 62.2315C33.8651 61.8265 33.232 61.8035 32.8273 62.1796C32.4225 62.5556 32.3993 63.1888 32.7754 63.5936L35.5158 66.5426C35.7057 66.747 35.9716 66.8621 36.2487 66.8621C36.2695 66.8621 36.2905 66.8615 36.3113 66.8602C36.6106 66.8414 36.8858 66.6894 37.061 66.4459L41.0913 60.8428C41.4141 60.3941 41.3119 59.7689 40.8634 59.4461Z" fill="#15B7A0"/>
<path d="M44.6719 35.4571C44.6719 36.0097 45.1198 36.4577 45.6724 36.4577H61.722C62.2746 36.4577 62.7225 36.0097 62.7225 35.4571C62.7225 34.9045 62.2746 34.4565 61.722 34.4565H45.6724C45.1198 34.4565 44.6719 34.9045 44.6719 35.4571Z" fill="#3D6687"/>
<path d="M40.8634 31.8289C40.4148 31.5064 39.7895 31.6083 39.4669 32.0569L36.15 36.6681L34.2413 34.6142C33.8651 34.2092 33.232 34.1862 32.8273 34.5622C32.4225 34.9383 32.3993 35.5715 32.7754 35.9763L35.5158 38.9253C35.7057 39.1297 35.9716 39.2448 36.2487 39.2448C36.2695 39.2448 36.2905 39.2441 36.3113 39.2428C36.6106 39.2241 36.8858 39.0721 37.061 38.8286L41.0913 33.2255C41.4141 32.7768 41.3119 32.1515 40.8634 31.8289Z" fill="#15B7A0"/>
<path d="M44.6719 49.2515C44.6719 49.8042 45.1198 50.2521 45.6724 50.2521H61.722C62.2746 50.2521 62.7225 49.8042 62.7225 49.2515C62.7225 48.6989 62.2746 48.251 61.722 48.251H45.6724C45.1198 48.251 44.6719 48.6989 44.6719 49.2515Z" fill="#3D6687"/>
</g>
<defs>
<clipPath id="clip0_4301_1021">
<rect width="66.2812" height="66.2812" fill="white" transform="translate(14.4766 14.2983)"/>
</clipPath>
</defs>
</svg>
