<svg width="95" height="94" viewBox="0 0 95 94" fill="none" xmlns="http://www.w3.org/2000/svg">
<path d="M78.0504 52.1682C78.0504 35.232 64.3208 21.5024 47.3846 21.5024C30.4483 21.5024 16.7188 35.232 16.7188 52.1682V52.9746H78.0504V52.1682Z" fill="#CCDFED"/>
<path d="M47.3879 21.5024C45.6423 21.5024 43.9316 21.6505 42.2656 21.9307C56.7632 24.3689 67.8429 37.7839 67.8429 52.9746H78.0535V52.1682C78.0537 35.232 64.3241 21.5024 47.3879 21.5024Z" fill="#BAD5E5"/>
<path d="M78.5236 56.6982H16.2485C15.1318 56.6982 14.2266 55.7929 14.2266 54.6762C14.2266 53.5596 15.1318 52.6543 16.2485 52.6543H47.3524H78.5236C79.6403 52.6543 80.5456 53.5596 80.5456 54.6762C80.5456 55.7929 79.6403 56.6982 78.5236 56.6982Z" fill="#15B7A0"/>
<path d="M78.5218 52.6543H68.0078C69.1245 52.6543 70.0298 53.5596 70.0298 54.6762C70.0298 55.7929 69.1245 56.6982 68.0078 56.6982H78.5218C79.6385 56.6982 80.5438 55.7929 80.5438 54.6762C80.5438 53.5596 79.6385 52.6543 78.5218 52.6543Z" fill="#17A792"/>
<path d="M47.3852 21.536C49.3282 21.536 50.9032 19.961 50.9032 18.018C50.9032 16.0751 49.3282 14.5 47.3852 14.5C45.4423 14.5 43.8672 16.0751 43.8672 18.018C43.8672 19.961 45.4423 21.536 47.3852 21.536Z" fill="#CCDFED"/>
<path d="M47.387 19.1562C46.2836 19.1562 45.1931 19.2114 44.1172 19.3167C44.634 20.6168 45.9027 21.5364 47.387 21.5364C48.8713 21.5364 50.14 20.6168 50.6569 19.3166C49.581 19.2114 48.4905 19.1562 47.387 19.1562Z" fill="#B2CAD8"/>
<path d="M47.3846 56.6978H16.7188L17.9547 57.6508C18.9078 58.3856 19.6579 59.3708 20.026 60.5167C20.4267 61.7635 21.5858 62.6065 22.8922 62.6065H39.0703C42.533 62.6065 45.3402 65.4136 45.3402 68.8764V75.5299H49.429V68.8764C49.429 65.4136 52.2362 62.6065 55.6989 62.6065H71.877C73.1776 62.6065 74.3181 61.767 74.7371 60.5358C75.1233 59.4015 75.8353 58.406 76.7845 57.6741L78.0505 56.6979H47.3846V56.6978Z" fill="#CCDFED"/>
<path d="M42.8516 63.8716C44.3661 65.0161 45.3453 66.8317 45.3453 68.8763V75.5298H49.4341V68.8763C49.4341 65.4136 52.2411 62.6064 55.704 62.6064H46.6279C45.2096 62.6064 43.9019 63.0778 42.8516 63.8716Z" fill="#BAD5E5"/>
<path d="M68.986 56.6978L67.72 57.674C66.7708 58.4059 66.0586 59.4014 65.6726 60.5357C65.2536 61.767 64.1131 62.6064 62.8125 62.6064H71.8886C73.1892 62.6064 74.3296 61.767 74.7488 60.5357C75.1349 59.4014 75.8469 58.4059 76.7961 57.674L78.0621 56.6978H68.986Z" fill="#BAD5E5"/>
<path d="M50.0342 70.0488H44.7323C39.9182 70.0488 36.0156 73.9514 36.0156 78.7655H58.751C58.7509 73.9514 54.8483 70.0488 50.0342 70.0488Z" fill="#3D6687"/>
<path d="M50.0344 70.0488H44.7325C44.536 70.0488 44.3417 70.0576 44.1484 70.0705C48.6899 70.3712 52.2811 74.1479 52.2811 78.7655H58.7512C58.7511 73.9514 54.8485 70.0488 50.0344 70.0488Z" fill="#557D9D"/>
</svg>
