<svg width="94" height="94" viewBox="0 0 94 94" fill="none" xmlns="http://www.w3.org/2000/svg">
<path d="M47.3438 79.7495C65.4699 79.7495 80.1641 65.0554 80.1641 46.9292C80.1641 28.803 65.4699 14.1089 47.3438 14.1089C29.2176 14.1089 14.5234 28.803 14.5234 46.9292C14.5234 65.0554 29.2176 79.7495 47.3438 79.7495Z" fill="#15B7A0"/>
<path d="M47.3388 71.5102C60.9145 71.5102 71.9198 60.5049 71.9198 46.9291C71.9198 33.3534 60.9145 22.3481 47.3388 22.3481C33.7631 22.3481 22.7578 33.3534 22.7578 46.9291C22.7578 60.5049 33.7631 71.5102 47.3388 71.5102Z" fill="#CCDFED"/>
<path d="M40.1364 36.7666H39.1065C36.3425 36.7666 34.0938 39.0153 34.0938 41.7794V52.0786C34.0938 54.8426 36.3425 57.0913 39.1065 57.0913H40.1364C42.9005 57.0913 45.1492 54.8426 45.1492 52.0786V41.7794C45.1492 39.0153 42.9005 36.7666 40.1364 36.7666ZM41.3031 52.0786C41.3031 52.7219 40.7796 53.2452 40.1364 53.2452H39.1065C38.4632 53.2452 37.9399 52.7219 37.9399 52.0786V41.7794C37.9399 41.1361 38.4633 40.6127 39.1065 40.6127H40.1364C40.7797 40.6127 41.3031 41.1361 41.3031 41.7794V52.0786Z" fill="#3D6687"/>
<path d="M59.5307 36.9701C58.5808 36.495 57.4257 36.8802 56.9506 37.8301L48.7113 54.3086C48.2363 55.2585 48.6214 56.4137 49.5712 56.8886C50.5168 57.3615 51.6743 56.9825 52.1514 56.0286L60.3907 39.5501C60.8657 38.6002 60.4805 37.445 59.5307 36.9701Z" fill="#3D6687"/>
<path d="M50.4309 41.6431C51.4929 41.6431 52.3539 40.7821 52.3539 39.72V38.6902C52.3539 37.6281 51.4929 36.7671 50.4309 36.7671C49.3688 36.7671 48.5078 37.6281 48.5078 38.6902V39.72C48.5078 40.7821 49.3688 41.6431 50.4309 41.6431Z" fill="#3D6687"/>
<path d="M58.6653 52.2158C57.6032 52.2158 56.7422 53.0768 56.7422 54.1389V55.1687C56.7422 56.2308 57.6032 57.0918 58.6653 57.0918C59.7273 57.0918 60.5883 56.2308 60.5883 55.1687V54.1389C60.5883 53.0768 59.7273 52.2158 58.6653 52.2158Z" fill="#3D6687"/>
</svg>
