<svg width="95" height="94" viewBox="0 0 95 94" fill="none" xmlns="http://www.w3.org/2000/svg">
<path d="M73.3914 47.2714C73.3914 50.2877 72.9364 53.1986 72.0891 55.9332C71.9974 56.2384 71.8985 56.5401 71.7923 56.8398C71.4577 57.8175 71.0693 58.7696 70.6339 59.6963C70.2688 60.4777 69.8693 61.2389 69.436 61.9785C68.5726 63.4631 67.5832 64.8622 66.4787 66.1613C65.3239 67.5223 64.0466 68.7743 62.6652 69.9009C57.7347 73.9111 51.4657 76.3133 44.641 76.3133C28.7629 76.3133 15.8906 63.3105 15.8906 47.2714C15.8906 31.2323 28.7626 18.2295 44.6409 18.2295C60.5191 18.2295 73.3914 31.2323 73.3914 47.2714Z" fill="#CCDFED"/>
<path d="M44.6326 48.9129C45.5299 48.9129 46.2574 48.178 46.2574 47.2716C46.2574 46.3652 45.5299 45.6304 44.6326 45.6304C43.7352 45.6304 43.0078 46.3652 43.0078 47.2716C43.0078 48.178 43.7352 48.9129 44.6326 48.9129Z" fill="url(#paint0_linear_4301_857)"/>
<path d="M44.6364 24.2051C44.4391 24.2051 44.2605 24.2858 44.1312 24.4165C44.002 24.547 43.9219 24.7274 43.9219 24.9268V30.2182C43.9219 30.3676 43.9668 30.5064 44.0438 30.6216C44.0951 30.6984 44.1607 30.7646 44.2368 30.8164C44.2747 30.8425 44.3154 30.8647 44.3581 30.883C44.4436 30.9194 44.5376 30.9398 44.6361 30.9398C44.8333 30.9398 45.0119 30.859 45.1413 30.7284C45.2704 30.5977 45.3505 30.4175 45.3505 30.218V24.9267C45.3507 24.5281 45.0307 24.2051 44.6364 24.2051Z" fill="#3D6687"/>
<path d="M44.6362 63.6025C44.2417 63.6025 43.9219 63.9257 43.9219 64.3241V69.6155C43.9219 69.6843 43.9343 69.7494 43.9521 69.8123C44.0373 70.1144 44.3097 70.3371 44.6361 70.3371C44.7347 70.3371 44.8287 70.3167 44.914 70.2803C45.1704 70.1707 45.3504 69.9143 45.3504 69.6154V64.324C45.3505 63.9256 45.0306 63.6025 44.6362 63.6025Z" fill="white"/>
<path d="M66.7573 46.5498H61.519C61.1245 46.5498 60.8047 46.8728 60.8047 47.2714C60.8047 47.6699 61.1245 47.993 61.519 47.993H66.7573C67.1518 47.993 67.4716 47.6699 67.4716 47.2714C67.4718 46.8728 67.1518 46.5498 66.7573 46.5498Z" fill="white"/>
<path d="M28.4641 47.2714C28.4641 47.122 28.4192 46.983 28.3422 46.8679C28.2909 46.7911 28.2253 46.7248 28.1492 46.673C28.0353 46.5952 27.8978 46.5498 27.7498 46.5498H22.5114C22.3141 46.5498 22.1355 46.6306 22.0062 46.7612C21.877 46.8919 21.7969 47.0721 21.7969 47.2715C21.7969 47.6701 22.1167 47.9931 22.5112 47.9931H27.7495C27.9468 47.9931 28.1253 47.9123 28.2547 47.7817C28.384 47.651 28.4641 47.4708 28.4641 47.2714Z" fill="white"/>
<path d="M57.0711 35.7235L60.7752 31.9819C61.0541 31.7001 61.0541 31.2432 60.7752 30.9614C60.4962 30.6795 60.0439 30.6796 59.7649 30.9614L56.0609 34.703C55.7818 34.9849 55.7818 35.4417 56.0609 35.7235C56.3398 36.0052 56.7922 36.0052 57.0711 35.7235Z" fill="white"/>
<path d="M33.204 58.8197C32.925 58.538 32.4727 58.538 32.1937 58.8197L28.4897 62.5613C28.2491 62.8043 28.2173 63.1771 28.3916 63.4561C28.4138 63.4915 28.4403 63.5246 28.4691 63.5565C28.4765 63.5647 28.4817 63.5739 28.4897 63.582C28.6258 63.7195 28.8033 63.7888 28.9817 63.792C28.9861 63.7922 28.9904 63.7934 28.9947 63.7934C29.1775 63.7934 29.3603 63.7228 29.4999 63.582L33.204 59.8404C33.3085 59.7347 33.374 59.6045 33.4001 59.468C33.4088 59.4225 33.4131 59.3764 33.4131 59.3302C33.4133 59.1453 33.3436 58.9605 33.204 58.8197Z" fill="white"/>
<path d="M60.775 62.5606L57.071 58.819C56.9838 58.7309 56.8789 58.6737 56.7686 58.6406C56.6624 58.6089 56.5512 58.6004 56.4425 58.6194C56.3028 58.6441 56.1688 58.7097 56.0609 58.8187C55.7818 59.1006 55.7818 59.5574 56.0609 59.8392L59.7649 63.5808C59.8068 63.623 59.8533 63.6568 59.9018 63.6864C60.1764 63.8541 60.5381 63.8204 60.7753 63.5808C60.889 63.4659 60.9539 63.3215 60.9747 63.1721C61.005 62.9556 60.9403 62.7277 60.775 62.5606Z" fill="white"/>
<path d="M29.5008 30.9614C29.3613 30.8205 29.1784 30.75 28.9956 30.75C28.95 30.75 28.9042 30.7544 28.8591 30.7632C28.724 30.7896 28.5951 30.8555 28.4905 30.9613C28.3511 31.1022 28.2812 31.2869 28.2812 31.4716C28.2812 31.5177 28.2856 31.5639 28.2943 31.6094C28.3205 31.7459 28.3857 31.8761 28.4904 31.9817L32.1944 35.7233C32.2008 35.7298 32.2083 35.734 32.215 35.7402C32.2802 35.8013 32.3527 35.8497 32.4308 35.8818C32.5167 35.917 32.6082 35.9346 32.6996 35.9346C32.8824 35.9346 33.0653 35.8641 33.2048 35.7232C33.3094 35.6176 33.3748 35.4872 33.4009 35.3508C33.4096 35.3053 33.414 35.2593 33.414 35.213C33.414 35.0284 33.3441 34.8436 33.2047 34.7027L29.5008 30.9614Z" fill="white"/>
<path d="M46.6834 49.3345C45.5553 49.3345 44.6406 48.4106 44.6406 47.271C44.6406 46.1314 45.5553 45.2075 46.6834 45.2075C47.8115 45.2075 58.3324 46.1314 58.3324 47.271C58.3326 48.4107 47.8115 49.3345 46.6834 49.3345Z" fill="white"/>
<path d="M46.6793 45.2075C46.6793 46.3471 45.7646 47.271 44.6365 47.271C43.5084 47.271 42.5938 46.3471 42.5938 45.2075C42.5938 44.0679 43.5084 27.5952 44.6365 27.5952C45.7646 27.5954 46.6793 44.0679 46.6793 45.2075Z" fill="white"/>
<path d="M44.638 50.4178C46.3581 50.4178 47.7526 49.0092 47.7526 47.2716C47.7526 45.5341 46.3581 44.1255 44.638 44.1255C42.9179 44.1255 41.5234 45.5341 41.5234 47.2716C41.5234 49.0092 42.9179 50.4178 44.638 50.4178Z" fill="#3D6687"/>
<path d="M41.8828 79.7768V75.7874C41.8828 74.5532 42.3262 73.3469 43.213 72.168C44.0995 70.9892 45.192 69.9198 46.4896 68.9598L50.4032 66.0823C51.7079 65.1234 52.8149 64.0683 53.7259 62.9171C54.6362 61.7667 55.0916 60.6155 55.0916 59.4643C55.0916 58.3139 54.7178 57.3068 53.9705 56.4433C53.2228 55.5805 52.1291 55.1488 50.6887 55.1488C49.4657 55.1488 48.4733 55.4898 47.7129 56.171C46.9515 56.8527 46.5713 57.8608 46.5713 59.196C46.5713 59.6324 46.3604 60.0144 45.9394 60.3414C45.5179 60.6684 44.9674 60.8318 44.2883 60.8318C42.9837 60.8318 42.3315 60.0222 42.3315 58.402C42.3315 56.2607 43.1533 54.5106 44.7979 53.1516C46.442 51.7927 48.4057 51.1133 50.6887 51.1133C53.1073 51.1133 55.1663 51.878 56.8651 53.4082C58.5632 54.9384 59.4131 56.9156 59.4131 59.3413C59.4131 60.9859 58.9577 62.5271 58.0474 63.9657C57.1364 65.4045 56.0358 66.6239 54.7451 67.6237C53.4539 68.6243 52.1628 69.5694 50.8724 70.46C49.5811 71.3506 48.4807 72.2481 47.5702 73.1523C46.6592 74.057 46.2046 74.934 46.2046 75.7833V77.3449H58.1901C58.5704 77.3449 58.9034 77.5303 59.1888 77.9009C59.4743 78.2716 59.6171 78.7183 59.6171 79.2394C59.6171 79.7613 59.475 80.2213 59.1916 80.6189C58.9082 81.0173 58.5775 81.2163 58.1998 81.2163H43.7858C43.3539 81.2163 42.9284 81.0791 42.5107 80.805C42.0918 80.5309 41.8828 80.1885 41.8828 79.7768Z" fill="#3D6687"/>
<path d="M59.7812 72.8312C59.7812 72.5301 59.8628 72.2284 60.026 71.9266L69.8917 52.306C70.2994 51.5108 70.9242 51.1133 71.767 51.1133C72.2286 51.1133 72.7047 51.2777 73.1938 51.6074C73.6829 51.937 73.9277 52.3349 73.9277 52.8016C73.9277 52.9662 73.8593 53.1863 73.7236 53.4606L65.3257 70.3855H71.3185V64.67C71.3185 63.7034 72.0381 63.2203 73.4791 63.2203C74.0766 63.2203 74.5861 63.3451 75.0079 63.5935C75.4289 63.8419 75.6398 64.2008 75.6398 64.6702V70.3857H77.6374C78.0991 70.3857 78.4589 70.5898 78.7176 70.9977C78.9755 71.4056 79.1049 71.8812 79.1049 72.4241C79.1049 72.9131 78.9551 73.3687 78.6563 73.7895C78.3571 74.2108 78.0174 74.4213 77.6372 74.4213H75.6396V79.7657C75.6396 80.2084 75.4218 80.5604 74.9873 80.8231C74.5521 81.0854 74.0496 81.2163 73.4788 81.2163C72.8808 81.2163 72.3711 81.0857 71.9501 80.8231C71.5283 80.5604 71.3182 80.2084 71.3182 79.7657V74.4213H61.2896C60.8543 74.4213 60.4946 74.2791 60.2094 73.9936C59.9241 73.7077 59.7812 73.3203 59.7812 72.8312Z" fill="#3D6687"/>
<path d="M82.0511 42.2996H78.7554H78.6024C76.2077 25.5296 61.8889 12.6016 44.6348 12.6016C25.7093 12.6016 10.3125 28.1543 10.3125 47.2715C10.3125 55.1598 13.006 62.8804 17.8968 69.011C22.7139 75.0493 29.4648 79.3277 36.9056 81.0583C37.1092 81.1059 37.3127 81.1284 37.5133 81.1284C38.742 81.1284 39.8528 80.2749 40.1403 79.0139C40.4746 77.5469 39.5685 76.0841 38.1161 75.7464C31.8488 74.2887 26.1605 70.6821 22.0987 65.5909C17.9184 60.351 15.7089 54.0164 15.7089 47.2718C15.7089 31.1603 28.685 18.0529 44.6348 18.0529C58.9069 18.0529 70.7962 28.5485 73.1397 42.2998H70.2935C68.144 42.2998 67.0676 44.9249 68.5875 46.4601L74.4664 52.3986C75.4085 53.3503 76.9363 53.3503 77.8784 52.3986L83.7573 46.4601C85.2771 44.9248 84.2005 42.2996 82.0511 42.2996Z" fill="#15B7A0"/>
<defs>
<linearGradient id="paint0_linear_4301_857" x1="44.6318" y1="46.4691" x2="44.6318" y2="51.3673" gradientUnits="userSpaceOnUse">
<stop stop-color="#F18D00"/>
<stop offset="1" stop-color="#ED7103"/>
</linearGradient>
</defs>
</svg>
