<svg width="94" height="95" viewBox="0 0 94 95" fill="none" xmlns="http://www.w3.org/2000/svg">
<path d="M61.1406 15.8892H32.6964C30.2795 15.8892 28.3203 17.8484 28.3203 20.2652V74.9657C28.3203 77.3825 30.2795 79.3418 32.6964 79.3418H61.1406C63.5574 79.3418 65.5167 77.3825 65.5167 74.9657V20.2652C65.5167 17.8484 63.5574 15.8892 61.1406 15.8892Z" fill="#3D6687"/>
<path fill-rule="evenodd" clip-rule="evenodd" d="M32.6966 80.436H61.1409C62.5911 80.4343 63.9814 79.8574 65.0069 78.832C66.0323 77.8065 66.6092 76.4162 66.6109 74.966V20.2655C66.6092 18.8152 66.0323 17.4249 65.0069 16.3995C63.9814 15.374 62.5911 14.7971 61.1409 14.7954H32.6966C31.2464 14.7971 29.8561 15.374 28.8306 16.3995C27.8052 17.4249 27.2283 18.8152 27.2266 20.2655V74.966C27.2283 76.4162 27.8052 77.8065 28.8306 78.832C29.8561 79.8574 31.2464 80.4343 32.6966 80.436ZM30.3759 17.9447C30.9914 17.3292 31.8262 16.9834 32.6966 16.9834H37.0703V19.1714C37.0703 19.7517 37.3008 20.3083 37.7112 20.7186C38.1215 21.1289 38.678 21.3595 39.2583 21.3595H54.5745C55.1548 21.3595 55.7113 21.1289 56.1216 20.7186C56.532 20.3083 56.7625 19.7517 56.7625 19.1714V16.9834H61.1409C62.0113 16.9834 62.8461 17.3292 63.4616 17.9447C64.0771 18.5602 64.4229 19.395 64.4229 20.2655V74.966C64.4229 75.8364 64.0771 76.6712 63.4616 77.2867C62.8461 77.9022 62.0113 78.248 61.1409 78.248H32.6966C31.8262 78.248 30.9914 77.9022 30.3759 77.2867C29.7604 76.6712 29.4146 75.8364 29.4146 74.966V20.2655C29.4146 19.395 29.7604 18.5602 30.3759 17.9447ZM51.2923 19.1714H46.9163C46.6261 19.1714 46.3479 19.0562 46.1427 18.851C45.9375 18.6459 45.8223 18.3676 45.8223 18.0774C45.8223 17.7873 45.9375 17.509 46.1427 17.3039C46.3479 17.0987 46.6261 16.9834 46.9163 16.9834H51.2923C51.5825 16.9834 51.8607 17.0987 52.0659 17.3039C52.2711 17.509 52.3863 17.7873 52.3863 18.0774C52.3863 18.3676 52.2711 18.6459 52.0659 18.851C51.8607 19.0562 51.5825 19.1714 51.2923 19.1714ZM41.7667 18.851C41.9719 19.0562 42.2501 19.1714 42.5403 19.1714C42.8304 19.1714 43.1087 19.0562 43.3139 18.851C43.519 18.6459 43.6343 18.3676 43.6343 18.0774C43.6343 17.7873 43.519 17.509 43.3139 17.3039C43.1087 17.0987 42.8304 16.9834 42.5403 16.9834C42.2501 16.9834 41.9719 17.0987 41.7667 17.3039C41.5615 17.509 41.4463 17.7873 41.4463 18.0774C41.4463 18.3676 41.5615 18.6459 41.7667 18.851Z" fill="white"/>
<path d="M32.7034 22.4534C32.4132 22.4534 32.135 22.3382 31.9298 22.133C31.7246 21.9278 31.6094 21.6496 31.6094 21.3594V20.2654C31.6094 19.9752 31.7246 19.697 31.9298 19.4918C32.135 19.2866 32.4132 19.1714 32.7034 19.1714C32.9935 19.1714 33.2718 19.2866 33.477 19.4918C33.6821 19.697 33.7974 19.9752 33.7974 20.2654V21.3594C33.7974 21.6496 33.6821 21.9278 33.477 22.133C33.2718 22.3382 32.9935 22.4534 32.7034 22.4534Z" fill="white"/>
<path d="M61.1409 22.4534C60.8507 22.4534 60.5725 22.3382 60.3673 22.133C60.1621 21.9278 60.0469 21.6496 60.0469 21.3594V20.2654C60.0469 19.9752 60.1621 19.697 60.3673 19.4918C60.5725 19.2866 60.8507 19.1714 61.1409 19.1714C61.431 19.1714 61.7093 19.2866 61.9145 19.4918C62.1196 19.697 62.2349 19.9752 62.2349 20.2654V21.3594C62.2349 21.6496 62.1196 21.9278 61.9145 22.133C61.7093 22.3382 61.431 22.4534 61.1409 22.4534Z" fill="white"/>
<path d="M53.4878 76.0601H40.3596C40.0695 76.0601 39.7912 75.9448 39.5861 75.7397C39.3809 75.5345 39.2656 75.2562 39.2656 74.9661C39.2656 74.6759 39.3809 74.3977 39.5861 74.1925C39.7912 73.9873 40.0695 73.8721 40.3596 73.8721H53.4878C53.7779 73.8721 54.0562 73.9873 54.2613 74.1925C54.4665 74.3977 54.5818 74.6759 54.5818 74.9661C54.5818 75.2562 54.4665 75.5345 54.2613 75.7397C54.0562 75.9448 53.7779 76.0601 53.4878 76.0601Z" fill="#8EADC1"/>
<path d="M74.2719 27.9233H19.5714C17.1545 27.9233 15.1953 29.8826 15.1953 32.2994V65.1197C15.1953 67.5365 17.1545 69.4957 19.5714 69.4957H74.2719C76.6887 69.4957 78.6479 67.5365 78.6479 65.1197V32.2994C78.6479 29.8826 76.6887 27.9233 74.2719 27.9233Z" fill="#15B7A0"/>
<path d="M29.4164 33.3936H20.6643C20.0601 33.3936 19.5703 33.8834 19.5703 34.4876V41.0516C19.5703 41.6558 20.0601 42.1456 20.6643 42.1456H29.4164C30.0206 42.1456 30.5104 41.6558 30.5104 41.0516V34.4876C30.5104 33.8834 30.0206 33.3936 29.4164 33.3936Z" fill="#CCDFED"/>
<path d="M30.5104 36.6756H25.0404V33.3936H22.8523V36.6756H19.5703V38.8636H25.0404V42.1456H27.2284V38.8636H30.5104V36.6756Z" fill="white"/>
<path d="M50.2039 62.9322H48.0159C47.7257 62.9322 47.4475 62.8169 47.2423 62.6117C47.0371 62.4066 46.9219 62.1283 46.9219 61.8382C46.9219 61.548 47.0371 61.2697 47.2423 61.0646C47.4475 60.8594 47.7257 60.7441 48.0159 60.7441H50.2039C50.4941 60.7441 50.7723 60.8594 50.9775 61.0646C51.1827 61.2697 51.2979 61.548 51.2979 61.8382C51.2979 62.1283 51.1827 62.4066 50.9775 62.6117C50.7723 62.8169 50.4941 62.9322 50.2039 62.9322Z" fill="#CCDFED"/>
<path d="M43.6414 62.9322H41.4534C41.1632 62.9322 40.885 62.8169 40.6798 62.6117C40.4746 62.4066 40.3594 62.1283 40.3594 61.8382C40.3594 61.548 40.4746 61.2697 40.6798 61.0646C40.885 60.8594 41.1632 60.7441 41.4534 60.7441H43.6414C43.9316 60.7441 44.2098 60.8594 44.415 61.0646C44.6202 61.2697 44.7354 61.548 44.7354 61.8382C44.7354 62.1283 44.6202 62.4066 44.415 62.6117C44.2098 62.8169 43.9316 62.9322 43.6414 62.9322Z" fill="#CCDFED"/>
<path d="M37.0747 62.9322H19.5706C19.2804 62.9322 19.0022 62.8169 18.797 62.6117C18.5918 62.4066 18.4766 62.1283 18.4766 61.8382C18.4766 61.548 18.5918 61.2697 18.797 61.0646C19.0022 60.8594 19.2804 60.7441 19.5706 60.7441H37.0747C37.3649 60.7441 37.6432 60.8594 37.8483 61.0646C38.0535 61.2697 38.1688 61.548 38.1688 61.8382C38.1688 62.1283 38.0535 62.4066 37.8483 62.6117C37.6432 62.8169 37.3649 62.9322 37.0747 62.9322Z" fill="#CCDFED"/>
<path d="M73.1763 34.4878H55.6721C55.382 34.4878 55.1037 34.3726 54.8986 34.1674C54.6934 33.9622 54.5781 33.684 54.5781 33.3938C54.5781 33.1037 54.6934 32.8254 54.8986 32.6202C55.1037 32.4151 55.382 32.2998 55.6721 32.2998H73.1763C73.4665 32.2998 73.7447 32.4151 73.9499 32.6202C74.1551 32.8254 74.2703 33.1037 74.2703 33.3938C74.2703 33.684 74.1551 33.9622 73.9499 34.1674C73.7447 34.3726 73.4665 34.4878 73.1763 34.4878Z" fill="#CCDFED"/>
<path d="M19.5706 57.462C19.2804 57.462 19.0022 57.3467 18.797 57.1416C18.5918 56.9364 18.4766 56.6581 18.4766 56.368V54.1799C18.4766 53.8898 18.5918 53.6115 18.797 53.4064C19.0022 53.2012 19.2804 53.0859 19.5706 53.0859C19.8607 53.0859 20.139 53.2012 20.3442 53.4064C20.5493 53.6115 20.6646 53.8898 20.6646 54.1799V56.368C20.6646 56.6581 20.5493 56.9364 20.3442 57.1416C20.139 57.3467 19.8607 57.462 19.5706 57.462Z" fill="#CCDFED"/>
<path d="M23.9456 57.462C23.6554 57.462 23.3772 57.3467 23.172 57.1416C22.9668 56.9364 22.8516 56.6581 22.8516 56.368V54.1799C22.8516 53.8898 22.9668 53.6115 23.172 53.4064C23.3772 53.2012 23.6554 53.0859 23.9456 53.0859C24.2357 53.0859 24.514 53.2012 24.7192 53.4064C24.9243 53.6115 25.0396 53.8898 25.0396 54.1799V56.368C25.0396 56.6581 24.9243 56.9364 24.7192 57.1416C24.514 57.3467 24.2357 57.462 23.9456 57.462Z" fill="#CCDFED"/>
<path d="M28.3206 57.462C28.0304 57.462 27.7522 57.3467 27.547 57.1416C27.3418 56.9364 27.2266 56.6581 27.2266 56.368V54.1799C27.2266 53.8898 27.3418 53.6115 27.547 53.4064C27.7522 53.2012 28.0304 53.0859 28.3206 53.0859C28.6107 53.0859 28.889 53.2012 29.0942 53.4064C29.2993 53.6115 29.4146 53.8898 29.4146 54.1799V56.368C29.4146 56.6581 29.2993 56.9364 29.0942 57.1416C28.889 57.3467 28.6107 57.462 28.3206 57.462Z" fill="#CCDFED"/>
<path d="M32.6956 57.462C32.4054 57.462 32.1272 57.3467 31.922 57.1416C31.7168 56.9364 31.6016 56.6581 31.6016 56.368V54.1799C31.6016 53.8898 31.7168 53.6115 31.922 53.4064C32.1272 53.2012 32.4054 53.0859 32.6956 53.0859C32.9857 53.0859 33.264 53.2012 33.4692 53.4064C33.6743 53.6115 33.7896 53.8898 33.7896 54.1799V56.368C33.7896 56.6581 33.6743 56.9364 33.4692 57.1416C33.264 57.3467 32.9857 57.462 32.6956 57.462Z" fill="#CCDFED"/>
<path d="M41.4534 57.462C41.1632 57.462 40.885 57.3467 40.6798 57.1416C40.4746 56.9364 40.3594 56.6581 40.3594 56.368V54.1799C40.3594 53.8898 40.4746 53.6115 40.6798 53.4064C40.885 53.2012 41.1632 53.0859 41.4534 53.0859C41.7435 53.0859 42.0218 53.2012 42.227 53.4064C42.4321 53.6115 42.5474 53.8898 42.5474 54.1799V56.368C42.5474 56.6581 42.4321 56.9364 42.227 57.1416C42.0218 57.3467 41.7435 57.462 41.4534 57.462Z" fill="#CCDFED"/>
<path d="M45.8284 57.462C45.5382 57.462 45.26 57.3467 45.0548 57.1416C44.8496 56.9364 44.7344 56.6581 44.7344 56.368V54.1799C44.7344 53.8898 44.8496 53.6115 45.0548 53.4064C45.26 53.2012 45.5382 53.0859 45.8284 53.0859C46.1185 53.0859 46.3968 53.2012 46.602 53.4064C46.8071 53.6115 46.9224 53.8898 46.9224 54.1799V56.368C46.9224 56.6581 46.8071 56.9364 46.602 57.1416C46.3968 57.3467 46.1185 57.462 45.8284 57.462Z" fill="#CCDFED"/>
<path d="M50.2034 57.462C49.9132 57.462 49.635 57.3467 49.4298 57.1416C49.2246 56.9364 49.1094 56.6581 49.1094 56.368V54.1799C49.1094 53.8898 49.2246 53.6115 49.4298 53.4064C49.635 53.2012 49.9132 53.0859 50.2034 53.0859C50.4935 53.0859 50.7718 53.2012 50.977 53.4064C51.1821 53.6115 51.2974 53.8898 51.2974 54.1799V56.368C51.2974 56.6581 51.1821 56.9364 50.977 57.1416C50.7718 57.3467 50.4935 57.462 50.2034 57.462Z" fill="#CCDFED"/>
<path d="M58.9534 57.462C58.6632 57.462 58.385 57.3467 58.1798 57.1416C57.9746 56.9364 57.8594 56.6581 57.8594 56.368V54.1799C57.8594 53.8898 57.9746 53.6115 58.1798 53.4064C58.385 53.2012 58.6632 53.0859 58.9534 53.0859C59.2435 53.0859 59.5218 53.2012 59.727 53.4064C59.9321 53.6115 60.0474 53.8898 60.0474 54.1799V56.368C60.0474 56.6581 59.9321 56.9364 59.727 57.1416C59.5218 57.3467 59.2435 57.462 58.9534 57.462Z" fill="#CCDFED"/>
<path d="M63.3284 57.462C63.0382 57.462 62.76 57.3467 62.5548 57.1416C62.3496 56.9364 62.2344 56.6581 62.2344 56.368V54.1799C62.2344 53.8898 62.3496 53.6115 62.5548 53.4064C62.76 53.2012 63.0382 53.0859 63.3284 53.0859C63.6185 53.0859 63.8968 53.2012 64.102 53.4064C64.3071 53.6115 64.4224 53.8898 64.4224 54.1799V56.368C64.4224 56.6581 64.3071 56.9364 64.102 57.1416C63.8968 57.3467 63.6185 57.462 63.3284 57.462Z" fill="#CCDFED"/>
<path d="M67.7112 57.462C67.421 57.462 67.1428 57.3467 66.9376 57.1416C66.7324 56.9364 66.6172 56.6581 66.6172 56.368V54.1799C66.6172 53.8898 66.7324 53.6115 66.9376 53.4064C67.1428 53.2012 67.421 53.0859 67.7112 53.0859C68.0013 53.0859 68.2796 53.2012 68.4848 53.4064C68.6899 53.6115 68.8052 53.8898 68.8052 54.1799V56.368C68.8052 56.6581 68.6899 56.9364 68.4848 57.1416C68.2796 57.3467 68.0013 57.462 67.7112 57.462Z" fill="#CCDFED"/>
</svg>
