<svg width="20" height="18" viewBox="0 0 20 18" fill="none" xmlns="http://www.w3.org/2000/svg">
<path d="M-1.90735e-05 13.375C-1.90735e-05 13.7205 0.279823 14 0.624979 14H17.8662L15.1831 16.6832C14.9389 16.9274 14.9389 17.3229 15.1831 17.5669C15.3051 17.689 15.4651 17.75 15.625 17.75C15.7848 17.75 15.9448 17.689 16.0668 17.5669L19.8168 13.8169C20.0611 13.5727 20.0611 13.1772 19.8168 12.9332L16.0668 9.18317C15.8226 8.93895 15.4272 8.93895 15.1831 9.18317C14.939 9.42739 14.9389 9.82286 15.1831 10.0669L17.8662 12.75H0.624979C0.279823 12.75 -1.90735e-05 13.0296 -1.90735e-05 13.375ZM0.183104 4.18317L3.9331 0.433164C4.17732 0.188945 4.57279 0.188945 4.81685 0.433164C5.06091 0.677383 5.06107 1.07285 4.81685 1.31691L2.13373 4.00004H19.375C19.7201 4.00004 20 4.27957 20 4.62504C20 4.97051 19.7201 5.25004 19.375 5.25004H2.13373L4.81685 7.93317C5.06107 8.17739 5.06107 8.57285 4.81685 8.81692C4.69482 8.93895 4.53482 9.00004 4.37498 9.00004C4.21513 9.00004 4.05513 8.93895 3.9331 8.81692L0.183104 5.06692C-0.0611153 4.82285 -0.0611153 4.42723 0.183104 4.18317Z" fill="black"/>
</svg>
