<svg width="95" height="95" viewBox="0 0 95 95" fill="none" xmlns="http://www.w3.org/2000/svg">
<path d="M36.1991 24.5605L32.9609 21.3223L37.5565 16.7268C38.0164 16.2669 38.762 16.2669 39.2219 16.7268L40.7945 18.2994C41.2544 18.7593 41.2544 19.5049 40.7945 19.9648L36.1991 24.5605Z" fill="#3D6687"/>
<path d="M44.8085 28.6205L41.5703 25.3824L46.1659 20.7868C46.6258 20.3269 47.3714 20.3269 47.8313 20.7868L49.4039 22.3595C49.8638 22.8193 49.8638 23.565 49.4039 24.0248L44.8085 28.6205Z" fill="#3D6687"/>
<path d="M70.6953 59.0621L73.9335 62.3002L78.529 57.7047C78.9889 57.2448 78.9889 56.4992 78.529 56.0393L76.9563 54.4665C76.4964 54.0066 75.7508 54.0066 75.2909 54.4665L70.6953 59.0621Z" fill="#3D6687"/>
<path d="M66.0938 50.4526L69.3319 53.6907L73.9275 49.0952C74.3873 48.6353 74.3873 47.8897 73.9275 47.4298L72.3548 45.8571C71.8949 45.3972 71.1493 45.3972 70.6894 45.8571L66.0938 50.4526Z" fill="#3D6687"/>
<path d="M70.4414 72.5444L49.8864 45.0068L22.3487 24.4517C21.3837 23.7314 21.2819 22.3227 22.1334 21.4712L24.9566 18.6479C26.2206 17.3839 28.1217 17.0059 29.7729 17.6904L63.3052 31.5878L77.2026 65.1201C77.8869 66.7716 77.509 68.6725 76.245 69.9364L73.4219 72.7596C72.5705 73.6113 71.1617 73.5096 70.4414 72.5444Z" fill="#CCDFED"/>
<path d="M38.2653 78.4721L28.8123 65.9041L16.2444 56.4511C15.8325 56.1414 15.7901 55.5387 16.1546 55.1743L17.6038 53.7251C18.5803 52.7486 20.0594 52.4793 21.3175 53.0487L35.3263 59.3903L41.6678 73.3991C42.2372 74.6571 41.9678 76.1362 40.9914 77.1127L39.5421 78.5619C39.1777 78.9263 38.575 78.884 38.2653 78.4721Z" fill="#CCDFED"/>
<path d="M41.6678 73.399L39.4962 68.6018L38.1442 69.9536C36.9665 71.1313 35.0192 70.9943 34.0181 69.6632L30.1698 64.5467L30.1577 64.5586L16.8114 54.5176L16.1546 55.1744C15.7901 55.5388 15.8325 56.1414 16.2443 56.4512L28.8123 65.9042L38.2653 78.4722C38.575 78.8841 39.1777 78.9266 39.5422 78.562L40.9914 77.1127C41.9678 76.1362 42.2373 74.6571 41.6678 73.399Z" fill="#BAD5E5"/>
<path d="M77.1269 68.6671C77.1837 68.5442 77.2369 68.4198 77.282 68.2925C77.3747 68.0318 77.4398 67.7626 77.4822 67.4896C77.6041 66.7049 77.518 65.886 77.2007 65.1201L75.1806 60.2457L75.0523 59.9361C74.9326 60.8908 74.5024 61.8018 73.7924 62.5118L70.9693 65.3349C70.1178 66.1865 68.7092 66.0847 67.9888 65.1197L51.6544 43.2369L22.3448 21.2578L22.1314 21.4712C21.5719 22.0307 21.4266 22.83 21.6646 23.5172C21.7889 23.8759 22.0158 24.2046 22.3466 24.4516L40.2384 37.8065L49.8844 45.0067L57.0846 54.6527L70.4395 72.5444C70.6865 72.8754 71.0153 73.1022 71.3739 73.2265C72.0611 73.4645 72.8605 73.3192 73.42 72.7597L76.2432 69.9365C76.6178 69.5621 76.9124 69.1305 77.1269 68.6671Z" fill="#BAD5E5"/>
<path d="M28.8085 69.2786C26.6568 70.3054 24.4093 68.0578 25.4361 65.9061C27.7181 61.1236 30.6331 56.6696 34.1025 52.6641L57.9438 25.139C61.4709 21.0668 66.4373 18.5178 71.8022 18.0259L73.264 17.8919C75.3018 17.7051 77.0096 19.4128 76.8229 21.4508L76.689 22.9126C76.1971 28.2774 73.648 33.2438 69.5759 36.771L42.0507 60.6123C38.045 64.0816 33.5913 66.9966 28.8085 69.2786Z" fill="#15B7A0"/>
<path d="M76.6915 22.9126L76.8254 21.4508C77.0123 19.4129 75.3044 17.7051 73.2665 17.8919L71.8047 18.0259C71.7856 18.0276 71.7667 18.0301 71.7476 18.0318C71.243 23.3747 68.6981 28.3184 64.6404 31.8331L25.9453 68.7957C26.6482 69.4898 27.7414 69.7891 28.8112 69.2786C33.5937 66.9966 38.0477 64.0816 42.0532 60.6123L69.5783 36.771C73.6505 33.2438 76.1996 28.2775 76.6915 22.9126Z" fill="#119E8A"/>
<path d="M65.2178 23.0284C64.6994 22.9841 64.2433 23.3685 64.1988 23.8867C64.1545 24.405 64.5389 24.8613 65.0571 24.9057C67.8822 25.1475 69.5713 26.8367 69.813 29.6616C69.8328 29.8918 69.9337 30.0956 70.0852 30.2471C70.2749 30.4368 70.5439 30.5445 70.8319 30.5199C71.3504 30.4755 71.7346 30.0193 71.6902 29.5009C71.3711 25.7677 68.9513 23.3477 65.2178 23.0284Z" fill="white"/>
<path d="M70.8287 30.5204C71.3471 30.476 71.7314 30.0198 71.687 29.5014C71.5306 27.675 70.8706 26.1642 69.8013 25.0586C69.511 25.6664 69.1916 26.26 68.8438 26.8371C69.384 27.5839 69.713 28.5318 69.8096 29.662C69.8295 29.8921 69.9303 30.096 70.0818 30.2475C70.2716 30.4372 70.5406 30.5451 70.8287 30.5204Z" fill="#CCDFED"/>
</svg>
