<svg width="95" height="95" viewBox="0 0 95 95" fill="none" xmlns="http://www.w3.org/2000/svg">
<g clip-path="url(#clip0_4301_1022)">
<path d="M78.8308 25.7162C79.6111 27.79 79.6023 30.0947 78.7272 32.1302C78.0092 33.8003 76.6439 35.489 74.0783 36.4107C65.6628 39.434 65.6953 22.4751 65.6953 22.4751L78.6314 25.1862L78.8308 25.7162Z" fill="#BAD5E5"/>
<path d="M16.3665 68.1058C15.5863 66.0321 15.595 63.7273 16.4702 61.6918C17.1882 60.0217 18.5534 58.3331 21.119 57.4113C29.5345 54.3881 29.502 71.3469 29.502 71.3469L16.5659 68.6358L16.3665 68.1058Z" fill="#BAD5E5"/>
<path d="M47.3172 78.2872C64.9454 78.2872 79.2359 63.9967 79.2359 46.3685C79.2359 28.7402 64.9454 14.4497 47.3172 14.4497C29.6889 14.4497 15.3984 28.7402 15.3984 46.3685C15.3984 63.9967 29.6889 78.2872 47.3172 78.2872Z" fill="#13B89B"/>
<path d="M79.2172 47.4433C79.2291 47.0863 79.2372 46.7285 79.2372 46.3686C79.2372 46.0087 79.2291 45.6508 79.2172 45.2938H63.9947C63.9233 40.7906 63.4049 36.4405 62.4808 32.4575C66.6969 31.9505 70.7357 31.2332 74.4907 30.3115C74.6123 30.2816 74.7232 30.2312 74.8223 30.1663C74.4476 29.5315 74.0517 28.9107 73.6352 28.3051C69.9766 29.1867 66.0483 29.8738 61.9462 30.357C61.2407 27.816 60.3619 25.4517 59.3222 23.326C57.3646 19.3236 54.9696 16.4431 52.3276 14.8417C50.6952 14.5843 49.0222 14.4492 47.3176 14.4492C45.6129 14.4492 43.9399 14.5843 42.3076 14.8417C39.6656 16.4432 37.2704 19.3237 35.3129 23.326C34.2732 25.4517 33.3944 27.816 32.6889 30.357C28.5869 29.8738 24.6588 29.1866 21.0001 28.305C20.5812 28.914 20.1833 29.5383 19.8067 30.1768C19.8984 30.2328 20.0001 30.276 20.1099 30.303C23.8751 31.2288 27.9256 31.9488 32.1546 32.4575C31.2304 36.4405 30.7121 40.7906 30.6407 45.2938H15.4184C15.4066 45.6508 15.3984 46.0087 15.3984 46.3686C15.3984 46.7285 15.4066 47.0863 15.4184 47.4433H30.6409C30.7249 52.743 31.4286 57.8301 32.6829 62.3568C28.7363 62.8131 24.9394 63.4523 21.3877 64.2692C21.2461 64.3018 21.1176 64.3613 21.0061 64.4406C21.4338 65.0622 21.8829 65.6681 22.3526 66.2568C25.8056 65.4835 29.4878 64.8778 33.3147 64.4483C33.8936 66.2117 34.5613 67.874 35.3132 69.4112C37.2708 73.4136 39.6658 76.2941 42.3078 77.8955C43.9402 78.1528 45.6131 78.288 47.3178 78.288C49.0224 78.288 50.6954 78.1528 52.3278 77.8955C54.9698 76.294 57.3648 73.4136 59.3224 69.4112C60.0743 67.8738 60.7421 66.2117 61.3209 64.4483C65.1478 64.8777 68.8301 65.4835 72.2829 66.2568C72.7526 65.6681 73.2016 65.0623 73.6294 64.4407C73.5178 64.3613 73.3893 64.3017 73.2476 64.2691C69.6959 63.4523 65.8993 62.8131 61.9528 62.3568C63.2072 57.8301 63.9108 52.743 63.9948 47.4433H79.2172ZM46.2431 77.1266C42.8988 76.5907 39.7369 73.5637 37.2439 68.4667C36.5977 67.1455 36.0173 65.7245 35.5047 64.2216C39.0016 63.8951 42.6019 63.715 46.2431 63.6851V77.1266ZM46.2431 61.5358C42.3778 61.5671 38.5567 61.7666 34.8502 62.1267C33.5869 57.7043 32.8761 52.6895 32.7904 47.4433H46.2431V61.5358ZM46.2431 45.2938H32.7904C32.8628 40.8563 33.3826 36.5845 34.3057 32.6965C38.1768 33.0902 42.1804 33.3072 46.2431 33.3398V45.2938ZM46.2431 31.1905C42.3686 31.1588 38.5501 30.9583 34.8552 30.5931C35.5081 28.3111 36.3069 26.1862 37.2439 24.2703C39.7369 19.1732 42.8988 16.1463 46.2431 15.6105V31.1905ZM48.3924 15.6106C51.7367 16.1465 54.8986 19.1735 57.3916 24.2705C58.3286 26.1862 59.1276 28.3111 59.7803 30.5931C56.0853 30.9583 52.2668 31.159 48.3924 31.1906V15.6106ZM57.3916 68.4667C54.8986 73.5638 51.7367 76.5907 48.3924 77.1266V63.6851C52.0336 63.715 55.6339 63.8951 59.1308 64.2216C58.6183 65.7245 58.0378 67.1455 57.3916 68.4667ZM59.7853 62.1267C56.0788 61.7666 52.2577 61.5671 48.3924 61.5358V47.4433H61.8451C61.7596 52.6895 61.0486 57.7043 59.7853 62.1267ZM48.3924 45.2938V33.3398C52.4549 33.3072 56.4586 33.0902 60.3298 32.6965C61.2528 36.5845 61.7727 40.8565 61.8451 45.294H48.3924V45.2938Z" fill="#119E8A"/>
<path d="M47.3134 14.4492C45.969 14.4492 44.6445 14.5333 43.3438 14.6947C59.0989 16.6493 71.2935 30.0843 71.2935 46.3686C71.2935 62.6528 59.0989 76.0878 43.3438 78.0425C44.6444 78.2038 45.969 78.288 47.3134 78.288C64.9419 78.288 79.2327 63.9972 79.2327 46.3686C79.2327 28.74 64.9419 14.4492 47.3134 14.4492Z" fill="#119E8A"/>
<path d="M73.2575 64.2687C71.1329 63.7801 68.9191 63.3565 66.6395 62.9961C66.2266 63.6712 65.7885 64.3291 65.3281 64.9698C67.73 65.3275 70.06 65.7562 72.293 66.2563C72.4047 66.1162 72.5151 65.9751 72.6245 65.8331C72.638 65.8157 72.6513 65.7981 72.6646 65.7807C73.0008 65.3427 73.3259 64.8958 73.6394 64.4402C73.5279 64.361 73.3994 64.3013 73.2575 64.2687Z" fill="#11B9C1"/>
<path d="M79.2204 45.2939H71.2812C71.293 45.6509 71.3011 46.0088 71.3011 46.3687C71.3011 46.7286 71.293 47.0864 71.2812 47.4434H79.2204C79.2252 47.2944 79.229 47.1453 79.2324 46.9959C79.2364 46.7872 79.2403 46.5784 79.2403 46.3688C79.2403 46.1592 79.2364 45.9503 79.2324 45.7417C79.229 45.5922 79.2252 45.4429 79.2204 45.2939Z" fill="#11B9C1"/>
<path d="M46.5618 14.4591C46.4261 14.4623 46.2908 14.4662 46.1556 14.4711C46.0893 14.4735 46.0229 14.4761 45.9566 14.4788C45.8174 14.4847 45.6784 14.4917 45.5395 14.4995C45.4853 14.5025 45.4309 14.5051 45.3766 14.5083C45.1858 14.5198 44.9954 14.5328 44.8054 14.5478C44.7763 14.5501 44.7474 14.553 44.7183 14.5553C44.5545 14.5686 44.391 14.5831 44.2279 14.5988C44.1737 14.6041 44.1199 14.6097 44.0659 14.6152C43.92 14.6301 43.7745 14.6457 43.6292 14.6626C43.5821 14.6681 43.5349 14.6733 43.4879 14.6791C43.4449 14.6842 43.4022 14.6902 43.3594 14.6956C45.0854 14.9101 46.7685 15.2623 48.3976 15.7411V15.6105C49.4229 15.7747 50.4309 16.1742 51.4079 16.7947C53.5586 17.67 55.5928 18.772 57.4796 20.0727C55.9308 17.7318 54.1933 15.9692 52.333 14.8416H52.3329C52.1709 14.8161 52.0083 14.7927 51.8455 14.7696C51.7753 14.7596 51.7051 14.7496 51.6348 14.7401C51.4827 14.7196 51.3305 14.7 51.1779 14.6816C51.0923 14.6713 51.0064 14.6618 50.9206 14.6522C50.7762 14.636 50.6319 14.6195 50.4869 14.6052C50.2749 14.5843 50.0625 14.5653 49.8493 14.5486C49.7454 14.5405 49.6409 14.5342 49.5368 14.527C49.3914 14.517 49.2459 14.5073 49.0999 14.4993C49.0003 14.4938 48.9005 14.4891 48.8005 14.4846C48.639 14.4772 48.4771 14.4711 48.315 14.4661C48.2314 14.4635 48.1479 14.4606 48.0641 14.4586C47.8176 14.453 47.5706 14.4492 47.3229 14.4492C47.1288 14.4492 46.9353 14.4515 46.742 14.455C46.6819 14.456 46.6219 14.4577 46.5618 14.4591Z" fill="#11B9C1"/>
<path d="M67.7329 31.6981C70.0655 31.3037 72.3266 30.8427 74.4911 30.3114C74.6128 30.2816 74.7236 30.2312 74.8228 30.1663C74.5429 29.6923 74.2513 29.2261 73.948 28.7682C73.946 28.7652 73.9441 28.7622 73.9421 28.7593C73.8412 28.6071 73.7391 28.4557 73.6356 28.3052C71.3881 28.8468 69.0381 29.3142 66.6094 29.7068C67.0071 30.3553 67.3813 31.0199 67.7329 31.6981Z" fill="#11B9C1"/>
<path d="M48.315 78.2709C48.4771 78.2659 48.639 78.2598 48.8005 78.2524C48.9004 78.2478 49.0003 78.2432 49.0999 78.2377C49.2459 78.2297 49.3914 78.2199 49.5368 78.2101C49.6409 78.2029 49.7454 78.1967 49.8493 78.1884C50.0624 78.1717 50.2749 78.1527 50.4869 78.1318C50.6319 78.1174 50.7762 78.1011 50.9206 78.0848C51.0065 78.0752 51.0924 78.0657 51.178 78.0554C51.3304 78.0371 51.4825 78.0176 51.6343 77.9969C51.7051 77.9873 51.7759 77.9773 51.8465 77.9672C52.0087 77.9442 52.171 77.9208 52.3324 77.8953C52.3326 77.8953 52.3329 77.8952 52.333 77.8952C54.1933 76.7676 55.9308 75.0051 57.4796 72.6641C55.5928 73.9649 53.5586 75.0668 51.4079 75.9421C50.4309 76.5626 49.4229 76.9621 48.3976 77.1263V76.9958C46.7685 77.4744 45.0853 77.8268 43.3594 78.0413C43.4022 78.0467 43.4449 78.0526 43.4879 78.0578C43.535 78.0634 43.5822 78.0688 43.6295 78.0743C43.7744 78.0911 43.9196 78.1067 44.0651 78.1216C44.1196 78.1271 44.1741 78.1328 44.2286 78.1381C44.3914 78.1538 44.5546 78.1682 44.7181 78.1816C44.7472 78.1839 44.7763 78.1867 44.8055 78.1891C44.9954 78.2039 45.1859 78.2169 45.3767 78.2286C45.431 78.2318 45.4854 78.2344 45.5396 78.2374C45.6784 78.2452 45.8174 78.2521 45.9567 78.2581C46.023 78.2609 46.0894 78.2634 46.1558 78.2658C46.2909 78.2707 46.4262 78.2747 46.5619 78.2778C46.622 78.2792 46.682 78.2809 46.7421 78.2821C46.9354 78.2856 47.129 78.2878 47.323 78.2878C47.5709 78.2878 47.8179 78.2841 48.0643 78.2784C48.1479 78.2764 48.2314 78.2736 48.315 78.2709Z" fill="#11B9C1"/>
<path d="M48.196 56.444L54.1229 58.6324C54.3081 58.7008 54.3522 58.9446 54.2019 59.0725C43.4406 68.2219 29.3551 71.0444 15.9062 66.4826C16.0006 67.0241 16.1449 67.559 16.3401 68.0795L16.5391 68.6096C19.4107 75.3246 26.6713 78.9751 33.7925 77.3549C43.2306 75.2075 51.9214 70.2174 58.3214 63.2813C58.4517 63.14 58.6842 63.1839 58.7528 63.3635L61.1651 69.6941C61.2552 69.9305 61.5961 69.9101 61.6575 69.6648L66.1903 51.5319C66.238 51.3406 66.0629 51.1685 65.8725 51.2195L48.2185 55.9518C47.9751 56.017 47.9595 56.3566 48.196 56.444Z" fill="#E1EFFB"/>
<path d="M46.9866 37.3778L41.0597 35.1894C40.8744 35.1211 40.8303 34.8772 40.9807 34.7493C51.7419 25.5999 65.8274 22.7774 79.2763 27.3392C79.1819 26.7978 79.0377 26.2628 78.8424 25.7423L78.6435 25.2122C75.7718 18.4972 68.5113 14.8467 61.3901 16.4669C51.952 18.6143 43.2612 23.6044 36.8612 30.5404C36.7308 30.6817 36.4983 30.6378 36.4298 30.4582L34.0174 24.1277C33.9273 23.8913 33.5865 23.9116 33.5251 24.1571L28.9923 42.2899C28.9446 42.4812 29.1197 42.6533 29.3101 42.6023L46.9641 37.8701C47.2075 37.8047 47.2231 37.4651 46.9866 37.3778Z" fill="#E1EFFB"/>
</g>
<defs>
<clipPath id="clip0_4301_1022">
<rect width="64" height="64" fill="white" transform="translate(15.3984 14.3687)"/>
</clipPath>
</defs>
</svg>
