<svg width="136" height="39" viewBox="0 0 136 39" fill="none" xmlns="http://www.w3.org/2000/svg">
<path d="M129.391 0H6.113C2.732 0.01 -0.00299753 2.546 2.46565e-06 5.67V32.881C2.46565e-06 36.012 2.748 38.551 6.137 38.551H129.415C132.804 38.551 135.552 36.012 135.552 32.881V5.67C135.531 2.538 132.782 0.007 129.392 0H129.391ZM134.433 32.881C134.42 35.403 132.207 37.445 129.474 37.457H6.034C3.301 37.445 1.088 35.403 1.075 32.881V5.67C1.088 3.148 3.301 1.107 6.034 1.095H129.474C132.207 1.107 134.42 3.148 134.433 5.67V32.881ZM49.089 21.081H43.164V22.833H47.355C47.158 25.285 45.095 26.336 43.164 26.336C42.5465 26.3353 41.9352 26.2131 41.365 25.9762C40.7948 25.7393 40.2768 25.3924 39.8407 24.9553C39.4045 24.5182 39.0587 23.9995 38.823 23.4288C38.5873 22.858 38.4663 22.2465 38.467 21.629C38.4692 21.0115 38.5931 20.4005 38.8314 19.8309C39.0698 19.2613 39.418 18.7442 39.8562 18.3092C40.2944 17.8741 40.814 17.5296 41.3853 17.2954C41.9567 17.0612 42.5685 16.9418 43.186 16.944C44.3646 16.9394 45.4984 17.395 46.346 18.214L47.575 16.944C46.3803 15.7937 44.7782 15.164 43.12 15.193C39.433 15.215 36.602 18.301 36.602 21.629C36.6108 22.4862 36.7886 23.3332 37.1253 24.1215C37.462 24.9098 37.9509 25.6239 38.564 26.223C39.8042 27.4347 41.4743 28.105 43.208 28.087C46.675 28.087 49.198 25.723 49.198 22.22C49.2061 21.8377 49.1695 21.4558 49.089 21.082V21.081ZM54.137 19.812C53.0337 19.8162 51.9771 20.2582 51.1994 21.0408C50.4217 21.8234 49.9863 22.8827 49.989 23.986C49.9943 25.0892 50.4371 26.1453 51.2202 26.9224C52.0033 27.6995 53.0628 28.1342 54.166 28.131C55.2692 28.1302 56.3271 27.6917 57.1074 26.9118C57.8877 26.1319 58.3267 25.0742 58.328 23.971C58.284 21.213 56.134 19.812 54.137 19.812ZM54.137 26.467C52.82 26.467 51.767 25.417 51.767 23.95C51.767 22.483 52.797 21.432 54.137 21.432C55.344 21.432 56.463 22.395 56.463 23.95C56.463 25.504 55.343 26.467 54.137 26.467ZM63.31 19.812C62.2067 19.8162 61.1501 20.2582 60.3724 21.0408C59.5947 21.8234 59.1593 22.8827 59.162 23.986C59.1673 25.0892 59.6101 26.1453 60.3932 26.9224C61.1763 27.6995 62.2358 28.1342 63.339 28.131C64.4424 28.1305 65.5005 27.6921 66.281 26.9122C67.0616 26.1322 67.5007 25.0744 67.502 23.971C67.48 21.213 65.307 19.812 63.31 19.812ZM63.332 26.467C62.015 26.467 60.962 25.417 60.962 23.95C60.962 22.483 61.993 21.432 63.332 21.432C64.539 21.432 65.658 22.395 65.658 23.95C65.658 25.504 64.538 26.467 63.332 26.467ZM74.546 20.753C74.2611 20.4464 73.9142 20.2038 73.5283 20.0416C73.1424 19.8794 72.7264 19.8011 72.308 19.812C70.069 19.812 68.314 21.76 68.314 23.95C68.314 26.445 70.354 28.109 72.264 28.109C73.449 28.109 74.085 27.649 74.546 27.102V27.912C74.546 29.335 73.668 30.189 72.352 30.189C71.891 30.1854 71.4417 30.0437 71.062 29.7822C70.6823 29.5207 70.3897 29.1514 70.222 28.722L68.621 29.379C69.191 30.583 70.333 31.831 72.351 31.831C74.568 31.831 76.258 30.429 76.258 27.518V20.075H74.524V20.753H74.546ZM72.439 26.467C71.254 26.467 70.135 25.504 70.135 23.971C70.135 22.373 71.276 21.432 72.461 21.432C73.559 21.432 74.678 22.373 74.678 23.95C74.678 25.57 73.558 26.467 72.439 26.467ZM87.845 22.22C87.297 20.907 86.045 19.79 84.4 19.79C82.293 19.79 80.515 21.454 80.515 23.928C80.515 26.533 82.491 28.088 84.597 28.088C86.353 28.088 87.428 27.124 88.087 26.27L86.66 25.307C86.4499 25.6592 86.1507 25.9498 85.7926 26.1496C85.4345 26.3493 85.03 26.4512 84.62 26.445C84.1942 26.4631 83.7726 26.3541 83.409 26.1319C83.0453 25.9096 82.7561 25.5842 82.578 25.197L88.153 22.899L87.845 22.22ZM82.271 23.84C82.117 22.636 83.259 21.41 84.444 21.41C84.7567 21.3954 85.0672 21.4699 85.3392 21.625C85.6111 21.7801 85.8334 22.0094 85.98 22.286L82.27 23.84H82.271ZM77.684 15.63H79.506V27.846H77.684V15.631V15.63ZM102.198 15.63H104.019V27.846H102.198V15.631V15.63ZM96.931 15.63H92.498V27.868H94.319V23.424H96.909C97.9437 23.428 98.9376 23.0208 99.6722 22.2921C100.407 21.5634 100.822 20.5727 100.826 19.538C100.827 18.5035 100.418 17.5108 99.6874 16.7781C98.957 16.0455 97.9655 15.6329 96.931 15.631V15.63ZM96.931 21.585H94.341V17.47H96.931C97.2015 17.4696 97.4695 17.5225 97.7196 17.6257C97.9696 17.7288 98.197 17.8802 98.3885 18.0712C98.5801 18.2622 98.7322 18.4891 98.836 18.7389C98.9399 18.9887 98.9936 19.2565 98.994 19.527C98.9937 19.7976 98.9402 20.0655 98.8363 20.3154C98.7325 20.5653 98.5805 20.7923 98.3889 20.9834C98.1973 21.1745 97.9699 21.326 97.7198 21.4292C97.4696 21.5325 97.2016 21.5854 96.931 21.585ZM118.438 25.241L116.046 19.791H114.049L117.45 27.518L115.54 31.831H117.538L122.848 19.791H120.852L118.438 25.241ZM105.709 21.126L107.179 22.111C108.255 20.25 111.283 20.688 111.481 22.68C110.571 22.41 109.621 22.3 108.671 22.351C107.267 22.483 106.061 23.381 105.863 24.847C105.753 25.635 105.929 26.62 106.477 27.211C107.333 28.131 108.76 28.262 109.923 27.934C110.55 27.7532 111.104 27.3774 111.503 26.861V27.846H113.324V23.446C113.632 18.936 107.882 17.864 105.709 21.126ZM109.506 26.336C107.399 26.905 106.872 23.49 110.011 23.95C110.528 24.0169 111.036 24.1417 111.525 24.322C111.403 24.8093 111.15 25.2542 110.794 25.609C110.438 25.9638 109.993 26.2151 109.505 26.336H109.506ZM26.748 18.696L15.293 12.478C15.1686 12.4149 15.0355 12.3707 14.898 12.347L24.027 21.432L26.748 18.696ZM14.239 12.456C13.976 12.61 13.779 12.938 13.779 13.463C13.779 14.58 13.866 29.313 13.866 30.254C13.866 30.736 14.02 31.108 14.283 31.284L23.632 21.848L14.239 12.456ZM31.137 21.104L27.253 18.98L24.422 21.826L27.253 24.65L31.137 22.527C31.598 22.264 32.103 21.629 31.137 21.104ZM15.051 31.305C15.136 31.278 15.216 31.241 15.293 31.195L26.726 24.935L24.005 22.242L15.051 31.305ZM51.921 11.1C52.267 10.99 52.588 10.812 52.864 10.575C53.148 10.341 53.38 10.05 53.544 9.721C53.726 9.346 53.817 8.933 53.807 8.517C53.817 8.1 53.727 7.687 53.544 7.313C53.3805 6.977 53.149 6.67868 52.864 6.437C52.583 6.207 52.264 6.03 51.92 5.912C51.587 5.80266 51.2395 5.74367 50.889 5.737H49V11.253H50.888C51.238 11.279 51.591 11.227 51.919 11.1H51.921ZM49.769 10.575V6.458H50.735C51.08 6.453 51.422 6.513 51.745 6.633C52.012 6.728 52.253 6.886 52.447 7.093C52.626 7.283 52.767 7.507 52.864 7.75C53.0394 8.24561 53.0394 8.78639 52.864 9.282C52.7674 9.52522 52.626 9.74809 52.447 9.939C52.253 10.146 52.0123 10.3037 51.745 10.399C51.422 10.519 51.08 10.579 50.735 10.574H49.769V10.575ZM57.45 8.605C57.6225 8.53434 57.7793 8.43017 57.9113 8.29852C58.0433 8.16686 58.1479 8.01034 58.219 7.838C58.2892 7.65637 58.3264 7.46369 58.329 7.269C58.3428 7.02596 58.2895 6.78381 58.175 6.569C58.0797 6.3752 57.9361 6.20921 57.758 6.087C57.5672 5.96931 57.3599 5.88068 57.143 5.824C56.8977 5.77091 56.6479 5.74177 56.397 5.737H54.707V11.253H55.475V8.8H56.2L57.67 11.274H58.592L57.012 8.734C57.1646 8.71707 57.3129 8.67305 57.45 8.604V8.605ZM55.497 8.123V6.458H56.353C56.53 6.46 56.706 6.475 56.88 6.502C57.02 6.526 57.155 6.578 57.275 6.655C57.372 6.726 57.453 6.815 57.516 6.918C57.581 7.038 57.611 7.175 57.604 7.312C57.6115 7.43218 57.587 7.55221 57.5331 7.65988C57.4792 7.76755 57.3977 7.85902 57.297 7.925C57.0119 8.09219 56.6826 8.16858 56.353 8.144H55.497V8.122V8.123ZM59.799 10.597C60.0699 10.8664 60.392 11.0789 60.7463 11.2218C61.1006 11.3647 61.48 11.4351 61.862 11.429C62.2532 11.4364 62.6416 11.3615 63.002 11.209C63.3466 11.0678 63.6599 10.8597 63.9237 10.5967C64.1875 10.3338 64.3966 10.0212 64.539 9.677C64.692 9.31 64.766 8.915 64.759 8.517C64.7667 8.11928 64.6917 7.7243 64.539 7.357C64.3181 6.83162 63.9452 6.38423 63.4682 6.07225C62.9912 5.76026 62.4319 5.5979 61.862 5.606C61.4703 5.59767 61.0811 5.67195 60.72 5.824C60.3754 5.96542 60.0623 6.17371 59.7986 6.43683C59.535 6.69995 59.3261 7.0127 59.184 7.357C59.0313 7.7243 58.9564 8.11928 58.964 8.517C58.957 8.915 59.032 9.31 59.184 9.677C59.329 10.02 59.537 10.332 59.799 10.597ZM59.909 7.685C59.999 7.426 60.141 7.188 60.325 6.985C60.512 6.783 60.735 6.62 60.984 6.503C61.2621 6.3875 61.5603 6.32804 61.8615 6.32804C62.1627 6.32804 62.4609 6.3875 62.739 6.503C62.992 6.612 63.217 6.777 63.398 6.984C63.582 7.188 63.724 7.426 63.815 7.685C63.912 7.959 63.964 8.248 63.968 8.539C63.971 8.83 63.918 9.119 63.815 9.393C63.724 9.651 63.582 9.89 63.398 10.093C63.211 10.294 62.988 10.458 62.739 10.575C62.4609 10.6905 62.1627 10.75 61.8615 10.75C61.5603 10.75 61.2621 10.6905 60.984 10.575C60.7309 10.466 60.5056 10.3012 60.325 10.093C60.1406 9.88989 59.9988 9.65186 59.908 9.393C59.811 9.11853 59.7593 8.83009 59.755 8.539C59.7484 8.24697 59.8004 7.95657 59.908 7.685H59.909ZM65.68 5.759H66.448V11.275H65.68V5.758V5.759ZM70.552 11.1C70.899 10.99 71.22 10.812 71.496 10.575C71.78 10.341 72.012 10.05 72.176 9.721C72.358 9.346 72.449 8.933 72.439 8.517C72.449 8.1 72.359 7.687 72.176 7.313C72.0125 6.977 71.781 6.67868 71.496 6.437C71.215 6.207 70.896 6.03 70.552 5.912C70.219 5.80266 69.8715 5.74367 69.521 5.737H67.633V11.253H69.521C69.871 11.276 70.223 11.224 70.552 11.1ZM68.402 10.575V6.458H69.367C69.711 6.453 70.054 6.513 70.377 6.633C70.644 6.728 70.885 6.886 71.079 7.093C71.258 7.283 71.399 7.507 71.496 7.75C71.6714 8.24561 71.6714 8.78639 71.496 9.282C71.3994 9.52522 71.258 9.74809 71.079 9.939C70.8847 10.1462 70.6436 10.3039 70.376 10.399C70.054 10.519 69.711 10.579 69.367 10.574H68.401L68.402 10.575ZM76.829 5.759L74.415 11.275H75.248L75.841 9.875H78.453L79.045 11.275H79.879L77.487 5.759H76.829ZM76.126 9.174L77.136 6.744L78.146 9.174H76.126ZM81.152 8.824H81.986C82.245 8.831 82.503 8.801 82.754 8.736C82.975 8.682 83.184 8.585 83.368 8.451C83.5397 8.3282 83.6759 8.16228 83.763 7.97C83.961 7.54 83.969 7.048 83.785 6.612C83.6979 6.41977 83.5616 6.25387 83.39 6.131C83.2057 5.99712 82.9972 5.90033 82.776 5.846C82.5251 5.78221 82.2668 5.75294 82.008 5.759H80.384V11.275H81.152V8.822V8.824ZM81.152 6.437H81.964C82.28 6.412 82.595 6.488 82.864 6.657C82.9637 6.72764 83.0428 6.82368 83.0929 6.93516C83.143 7.04665 83.1624 7.16951 83.149 7.291C83.1578 7.41217 83.1364 7.53364 83.0867 7.64448C83.0369 7.75533 82.9604 7.85207 82.864 7.926C82.5953 8.09375 82.2797 8.17053 81.964 8.145H81.152V6.436V6.437ZM87.78 6.131C87.5954 5.997 87.3866 5.90021 87.165 5.846C86.9141 5.78222 86.6558 5.75295 86.397 5.759H84.773V11.275H85.541V8.822H86.375C86.634 8.83 86.892 8.8 87.143 8.735C87.364 8.681 87.573 8.584 87.758 8.45C87.9297 8.3272 88.0659 8.16128 88.153 7.969C88.35 7.539 88.358 7.047 88.175 6.611C88.0736 6.42803 87.9398 6.26504 87.78 6.13V6.131ZM87.253 7.926C86.9843 8.09375 86.6687 8.17053 86.353 8.145H85.541V6.458H86.353C86.669 6.433 86.984 6.509 87.253 6.677C87.3529 6.74773 87.432 6.84393 87.4822 6.95561C87.5323 7.06728 87.5516 7.19035 87.538 7.312C87.5443 7.4297 87.5216 7.54715 87.4719 7.65403C87.4222 7.76091 87.3471 7.85396 87.253 7.925V7.926ZM94.803 11.188C95.1474 11.0464 95.4603 10.8381 95.7238 10.575C95.9872 10.3118 96.196 9.99918 96.338 9.655C96.491 9.288 96.566 8.893 96.558 8.495C96.5657 8.09728 96.4907 7.7023 96.338 7.335C96.1171 6.80962 95.7442 6.36223 95.2672 6.05025C94.7902 5.73826 94.2309 5.5759 93.661 5.584C93.2696 5.57581 92.8808 5.65008 92.52 5.802C92.1754 5.94342 91.8623 6.15171 91.5986 6.41483C91.335 6.67795 91.1261 6.9907 90.984 7.335C90.8313 7.7023 90.7563 8.09728 90.764 8.495C90.756 8.893 90.831 9.288 90.984 9.655C91.1261 9.9993 91.335 10.312 91.5986 10.5752C91.8623 10.8383 92.1754 11.0466 92.52 11.188C93.2526 11.4802 94.0694 11.4802 94.802 11.188H94.803ZM92.103 10.071C91.9186 9.86789 91.7768 9.62986 91.686 9.371C91.5886 9.09659 91.5366 8.80814 91.532 8.517C91.53 8.225 91.582 7.936 91.686 7.663C91.776 7.404 91.918 7.166 92.103 6.963C92.289 6.761 92.513 6.598 92.761 6.481C93.0393 6.36536 93.3377 6.30583 93.639 6.30583C93.9403 6.30583 94.2387 6.36536 94.517 6.481C94.77 6.591 94.995 6.755 95.175 6.963C95.36 7.166 95.502 7.404 95.592 7.663C95.689 7.938 95.742 8.226 95.746 8.517C95.748 8.809 95.696 9.098 95.592 9.371C95.502 9.63 95.36 9.868 95.175 10.071C94.989 10.273 94.765 10.436 94.517 10.553C94.2387 10.6686 93.9403 10.7282 93.639 10.7282C93.3377 10.7282 93.0393 10.6686 92.761 10.553C92.5161 10.4305 92.2936 10.2676 92.103 10.071ZM101.276 10.049L98.313 5.759H97.458V11.275H98.226V6.94L101.188 11.274H102.044V5.758H101.276V10.048V10.049ZM38.665 9.896H41.276L41.869 11.297H42.725L40.333 5.759H39.653L37.238 11.275H38.072L38.665 9.896ZM39.982 6.744L40.992 9.174H38.972L39.982 6.744ZM43.998 6.941L46.96 11.275H47.794V5.758H47.048V10.048L44.085 5.758H43.23V11.274H43.998V6.94V6.941Z" fill="white"/>
</svg>
