<svg width="95" height="94" viewBox="0 0 95 94" fill="none" xmlns="http://www.w3.org/2000/svg">
<g clip-path="url(#clip0_4301_1019)">
<path d="M54.213 19.2998H18.8888C18.2383 19.2998 17.7109 19.8272 17.7109 20.4777V78.6047C17.7109 79.2552 18.2383 79.7826 18.8888 79.7826H63.0422C63.6927 79.7826 64.2201 79.2552 64.2201 78.6047V29.3069L54.213 19.2998Z" fill="#BAD5E5"/>
<path d="M58.7286 14.7822H23.4044C22.7539 14.7822 22.2266 15.3096 22.2266 15.9601V74.0871C22.2266 74.7376 22.7539 75.265 23.4044 75.265H67.5578C68.2084 75.265 68.7357 74.7376 68.7357 74.0871V24.7892L58.7286 14.7822Z" fill="#CCDFED"/>
<path d="M63.4512 19.5039V74.0868C63.4512 74.7373 62.9238 75.2646 62.2734 75.2646H67.5584C68.2089 75.2646 68.7362 74.7373 68.7362 74.0868V24.7888L63.4512 19.5039Z" fill="#BAD5E5"/>
<path d="M59.2754 63.3672L64.6484 68.7402L66.0362 67.3525L60.6632 61.9795L59.2754 63.3672Z" fill="#3D6687"/>
<path d="M58.7344 23.3863V14.7822L68.7413 24.7892H60.1372C59.3625 24.7892 58.7344 24.1611 58.7344 23.3863Z" fill="#BAD5E5"/>
<path d="M60.6119 39.5331C54.0469 32.9681 43.4029 32.9681 36.8378 39.5331C30.2728 46.0981 30.2728 56.7423 36.8378 63.3073C43.4028 69.8723 54.0469 69.8723 60.6119 63.3073C67.1769 56.7421 67.1769 46.0981 60.6119 39.5331Z" fill="#3D6687"/>
<path d="M48.7176 64.567C55.9786 64.567 61.8648 58.6808 61.8648 51.4197C61.8648 44.1587 55.9786 38.2725 48.7176 38.2725C41.4565 38.2725 35.5703 44.1587 35.5703 51.4197C35.5703 58.6808 41.4565 64.567 48.7176 64.567Z" fill="#CCDFED"/>
<path d="M58.0152 42.1233C54.7747 38.8828 50.2638 37.6886 46.0859 38.5384C48.5276 39.0352 50.8556 40.2295 52.7493 42.1233C57.8836 47.2575 57.8836 55.5817 52.7493 60.716C50.8556 62.6097 48.5275 63.8041 46.0859 64.3009C50.2638 65.1508 54.7747 63.9564 58.0152 60.716C63.1495 55.5819 63.1495 47.2577 58.0152 42.1233Z" fill="#BAD5E5"/>
<path d="M76.7387 77.5006L74.8014 79.4379C74.3424 79.897 73.5982 79.897 73.1391 79.4379L63.3287 69.6275C62.8696 69.1685 62.8696 68.4243 63.3287 67.9652L65.266 66.0279C65.725 65.5688 66.4692 65.5688 66.9283 66.0279L76.7387 75.8383C77.1978 76.2974 77.1978 77.0416 76.7387 77.5006Z" fill="#13B89B"/>
<path d="M27.1297 24.5767H50.6944C51.2364 24.5767 51.6757 24.1374 51.6757 23.5955C51.6757 23.0535 51.2364 22.6143 50.6944 22.6143H27.1297C26.5877 22.6143 26.1484 23.0535 26.1484 23.5955C26.1484 24.1374 26.5877 24.5767 27.1297 24.5767Z" fill="white"/>
<path d="M61.1426 28.9023H54.2109H36.4838H31.8338H29.5522H27.1297C26.5877 28.9023 26.1484 29.3416 26.1484 29.8836C26.1484 30.4255 26.5877 30.8648 27.1297 30.8648H29.5522H31.8338H36.4838H54.2109H61.1426C61.6845 30.8648 62.1238 30.4255 62.1238 29.8836C62.1238 29.3416 61.6845 28.9023 61.1426 28.9023Z" fill="white"/>
</g>
<defs>
<clipPath id="clip0_4301_1019">
<rect width="65" height="65" fill="white" transform="translate(14.8984 14.7822)"/>
</clipPath>
</defs>
</svg>
