<svg xmlns="http://www.w3.org/2000/svg" xmlns:xlink="http://www.w3.org/1999/xlink" viewBox="0 0 230.51 34.08"><defs><style>.a{fill:#fff;}.b{fill:url(#a);}</style><linearGradient id="a" y1="17.04" x2="31.81" y2="17.04" gradientUnits="userSpaceOnUse"><stop offset="0" stop-color="#13b89b"/><stop offset="1" stop-color="#29abe2"/></linearGradient></defs><path class="a" d="M59.14,22.9a13.32,13.32,0,0,1-.28,2.67,7.72,7.72,0,0,1-1,2.61,5.88,5.88,0,0,1-2.12,2,7,7,0,0,1-3.52.78,6.73,6.73,0,0,1-4.48-1.4,7.08,7.08,0,0,1-2.29-3.68l3.78-1.07a3.41,3.41,0,0,0,1.07,1.81,2.79,2.79,0,0,0,1.86.66,2.88,2.88,0,0,0,1.45-.32,2.26,2.26,0,0,0,.88-.93,5,5,0,0,0,.44-1.43A12.73,12.73,0,0,0,55,22.77V7.3h4.1Z"/><path class="a" d="M68.19,7.3H83.47v3.58H72.3v5.87H82.88V20.2H72.3v6.51H84.06v3.65H68.19Z"/><path class="a" d="M98.32,10.88H91.25V7.3h18.24v3.58h-7.07V30.36h-4.1Z"/><path class="a" d="M132.63,12.71a5.2,5.2,0,0,0-2.37-1.81,7.92,7.92,0,0,0-2.87-.57,8,8,0,0,0-3.26.65,7.71,7.71,0,0,0-2.52,1.79A7.9,7.9,0,0,0,120,15.44a9.45,9.45,0,0,0-.57,3.32,10.33,10.33,0,0,0,.55,3.46,7.86,7.86,0,0,0,1.58,2.68A7.32,7.32,0,0,0,124,26.65a8.12,8.12,0,0,0,3.23.61,7.14,7.14,0,0,0,3.29-.73,6.45,6.45,0,0,0,2.31-1.94l3.29,2.32a10.58,10.58,0,0,1-3.75,3,11.94,11.94,0,0,1-5.18,1.05,13.3,13.3,0,0,1-5-.89,11.34,11.34,0,0,1-3.89-2.51,11.15,11.15,0,0,1-2.54-3.84,12.9,12.9,0,0,1-.92-4.94,12.56,12.56,0,0,1,1-5A11.14,11.14,0,0,1,118.48,10a11.87,11.87,0,0,1,4-2.41,14.21,14.21,0,0,1,5-.85,13.44,13.44,0,0,1,2.31.22,11,11,0,0,1,2.31.65,10.64,10.64,0,0,1,2.09,1.09,6.67,6.67,0,0,1,1.66,1.56Z"/><path class="a" d="M143.16,7.3h4.11V26.71h9.8v3.65H143.16Z"/><path class="a" d="M172.87,7.3h3.55l9.93,23.06h-4.69l-2.15-5.28h-10l-2.09,5.28h-4.59Zm5.21,14.26-3.55-9.37-3.61,9.37Z"/><path class="a" d="M204.83,12.12A5.11,5.11,0,0,0,203,10.7a5.48,5.48,0,0,0-2.39-.57,5.92,5.92,0,0,0-1.44.18,4.34,4.34,0,0,0-1.3.56,3.07,3.07,0,0,0-1,1,2.72,2.72,0,0,0-.38,1.45,2.59,2.59,0,0,0,.33,1.34,3,3,0,0,0,.9.94,6.12,6.12,0,0,0,1.38.69c.54.19,1.14.39,1.79.58s1.5.51,2.3.82a8.72,8.72,0,0,1,2.18,1.2A6.1,6.1,0,0,1,207,20.75a5.81,5.81,0,0,1,.63,2.83,7.37,7.37,0,0,1-.68,3.25,6.75,6.75,0,0,1-1.82,2.29,8,8,0,0,1-2.68,1.37,11.34,11.34,0,0,1-3.22.45,12,12,0,0,1-4.4-.83,8.4,8.4,0,0,1-3.51-2.46l2.93-2.73a5.93,5.93,0,0,0,2.26,1.86,6.43,6.43,0,0,0,2.79.68,6.27,6.27,0,0,0,1.46-.18,3.93,3.93,0,0,0,1.35-.6,3.42,3.42,0,0,0,1-1.06,3.05,3.05,0,0,0,.37-1.58,2.56,2.56,0,0,0-.42-1.51,3.74,3.74,0,0,0-1.14-1.05,8.57,8.57,0,0,0-1.69-.76L198.19,20a17.72,17.72,0,0,1-2.09-.78,6.79,6.79,0,0,1-1.87-1.2,5.7,5.7,0,0,1-1.35-1.84,6.28,6.28,0,0,1-.52-2.72,6,6,0,0,1,.73-3A6.45,6.45,0,0,1,195,8.36a8.56,8.56,0,0,1,2.7-1.24,11.9,11.9,0,0,1,3.08-.41,11.09,11.09,0,0,1,3.57.62,8.79,8.79,0,0,1,3.14,1.86Z"/><path class="a" d="M227.68,12.12a5.06,5.06,0,0,0-1.85-1.42,5.48,5.48,0,0,0-2.39-.57,5.84,5.84,0,0,0-1.43.18,4.34,4.34,0,0,0-1.3.56,3,3,0,0,0-1,1,2.72,2.72,0,0,0-.37,1.45,2.59,2.59,0,0,0,.33,1.34,2.84,2.84,0,0,0,.89.94,6.21,6.21,0,0,0,1.39.69c.54.19,1.14.39,1.79.58s1.5.51,2.29.82a8.55,8.55,0,0,1,2.18,1.2,5.85,5.85,0,0,1,1.63,1.89,5.7,5.7,0,0,1,.64,2.83,7.23,7.23,0,0,1-.69,3.25A6.63,6.63,0,0,1,228,29.12a7.85,7.85,0,0,1-2.67,1.37,11.34,11.34,0,0,1-3.22.45,12,12,0,0,1-4.4-.83,8.44,8.44,0,0,1-3.52-2.46l2.93-2.73a6,6,0,0,0,2.27,1.86,6.42,6.42,0,0,0,2.78.68,6.29,6.29,0,0,0,1.47-.18,3.93,3.93,0,0,0,1.35-.6,3.28,3.28,0,0,0,1-1.06,3.05,3.05,0,0,0,.38-1.58,2.56,2.56,0,0,0-.42-1.51,4,4,0,0,0-1.14-1.05,8.67,8.67,0,0,0-1.7-.76L221,20a17.58,17.58,0,0,1-2.08-.78,6.84,6.84,0,0,1-1.88-1.2,6,6,0,0,1-1.35-1.84,6.43,6.43,0,0,1-.52-2.72,6.07,6.07,0,0,1,.73-3,6.37,6.37,0,0,1,1.93-2.1,8.56,8.56,0,0,1,2.7-1.24,11.84,11.84,0,0,1,3.08-.41,11,11,0,0,1,3.56.62,8.74,8.74,0,0,1,3.15,1.86Z"/><path class="b" d="M12.8,18.28,1.49,22.12,0,24l.31-2.4A2.58,2.58,0,0,1,1.36,20L12.8,12Zm5-.41,12.54,4.25L31.81,24l-.31-2.4a2.56,2.56,0,0,0-1-1.6L17.78,11.12c0-2.79-.1-5.77-.24-7.34A6.63,6.63,0,0,0,16.4.24a.62.62,0,0,0-1,0,6.52,6.52,0,0,0-1.15,3.54C14,6.63,14,13.9,14,16.88a22.89,22.89,0,0,0,.16,2.62l.3,3h-.61v-1c0-.39-.31-.51-.7-.51h-.37c-.39,0-.7.12-.7.51l.19,4.86a.71.71,0,0,0,.7.71h.18a.69.69,0,0,0,.69-.61l.87.42.17,1.74-5.15,4v1.45l6.17-2.57,6.16,2.57V32.63l-5.14-4,.17-1.72.95-.44a.69.69,0,0,0,.69.61h.18a.7.7,0,0,0,.7-.71l.19-4.86c0-.39-.31-.51-.7-.51h-.37c-.39,0-.7.12-.7.51v1h-.69l.29-3C17.71,19,17.75,18.41,17.78,17.87Z"/></svg>