<svg width="94" height="95" viewBox="0 0 94 95" fill="none" xmlns="http://www.w3.org/2000/svg">
<path d="M71.8296 25.3753L71.8297 25.3752C66.0199 19.3068 57.8386 15.5273 48.7741 15.5273C31.1481 15.5273 16.8594 29.816 16.8594 47.4421C16.8594 65.0682 31.1481 79.3568 48.7741 79.3568C55.2298 79.3568 61.2364 77.4383 66.2586 74.1429L71.8296 25.3753Z" fill="#15B7A0"/>
<path d="M78.2346 56.9255L79.5409 55.9485C79.892 54.676 80.1663 53.3716 80.3585 52.0406L79.5409 51.0636L80.5791 50.0866C80.6506 49.2146 80.6875 48.3327 80.6875 47.4423C80.6875 46.2604 80.6209 45.0941 80.4958 43.9456L77.1254 38.3628V32.7801C75.7158 30.0602 73.9276 27.5681 71.8282 25.3755H25.716V25.3768L16.8658 48.104L13.9922 55.4822V68.2845C13.9922 71.5216 16.617 74.1464 19.8541 74.1464H66.2568C72.0976 70.3138 76.6054 64.6173 78.9339 57.9025L78.2346 56.9255Z" fill="#CCDFED"/>
<path d="M32.2292 70.2385V29.2834C32.2292 27.1251 33.9788 25.3755 36.1371 25.3755H25.716V25.3768L16.8658 48.104L13.9922 55.4822V68.2845C13.9922 71.5216 16.617 74.1464 19.8541 74.1464H36.1371C33.9788 74.1464 32.2292 72.3969 32.2292 70.2385Z" fill="#BFD5E6"/>
<path d="M19.8541 17.5596H23.1107C24.5496 17.5596 25.716 18.726 25.716 20.1649V59.8174C25.716 61.2563 24.5496 62.4227 23.1107 62.4227H19.8541C16.6166 62.4227 13.9922 65.0472 13.9922 68.2846V23.4215C13.9922 20.1841 16.6166 17.5596 19.8541 17.5596Z" fill="#CCDFED"/>
<path d="M39.8541 33.8968C39.8541 33.2802 39.3541 32.7804 38.7376 32.7804H36.5045V31.6639C36.5045 31.0472 36.0045 30.5474 35.388 30.5474C34.7713 30.5474 34.2715 31.0473 34.2715 31.6639V32.7804C32.4215 32.7804 30.9219 34.2801 30.9219 36.13C30.9219 37.98 32.4216 39.4796 34.2715 39.4796H36.5046C37.1213 39.4796 37.6211 39.9795 37.6211 40.5961C37.6211 41.2128 37.1212 41.7126 36.5046 41.7126H32.0384C31.4217 41.7126 30.9219 42.2125 30.9219 42.8291C30.9219 43.4457 31.4218 43.9456 32.0384 43.9456H34.2715V45.0621C34.2715 45.6787 34.7714 46.1786 35.388 46.1786C36.0047 46.1786 36.5045 45.6786 36.5045 45.0621V43.9456H36.6045C38.3992 43.9458 39.8541 42.491 39.8541 40.6964V40.6124C39.8541 38.7459 38.3544 37.2462 36.5044 37.2462C35.6975 37.2462 34.8905 37.2462 34.271 37.2462C33.6543 37.2462 33.1549 36.7462 33.1549 36.1297C33.1549 35.513 33.6548 35.0132 34.2714 35.0132H38.7376C39.3543 35.0135 39.8541 34.5135 39.8541 33.8968Z" fill="#3D6687"/>
<path d="M34.2715 41.7124H32.0384C31.4217 41.7124 30.9219 42.2124 30.9219 42.8289C30.9219 43.4456 31.4218 43.9454 32.0384 43.9454H34.2715C33.6548 43.9454 33.155 43.4454 33.155 42.8289C33.155 42.2124 33.6548 41.7124 34.2715 41.7124Z" fill="#3D6687"/>
<path d="M34.2715 32.7803C32.4215 32.7803 30.9219 34.28 30.9219 36.1299C30.9219 37.9799 32.4216 39.4795 34.2715 39.4795C33.6548 39.4795 33.155 38.9796 33.155 38.363C33.155 37.7463 33.655 37.2465 34.2715 37.2465C34.2714 37.2465 34.2712 37.2465 34.2711 37.2465C33.6544 37.2465 33.155 36.7466 33.155 36.13C33.155 35.5133 33.655 35.0135 34.2715 35.0135C33.6548 35.0135 33.155 34.5136 33.155 33.897C33.155 33.2801 33.6548 32.7803 34.2715 32.7803Z" fill="#3D6687"/>
<path d="M77.1256 38.3625L78.0557 34.7349C77.7673 34.0712 77.457 33.4191 77.1256 32.7798H46.5584C45.1195 32.7798 43.9531 33.9462 43.9531 35.3851V41.34C43.9531 42.7789 45.1195 43.9453 46.5584 43.9453H80.4959C80.424 43.2856 80.3301 42.6326 80.2187 41.9857L77.1256 38.3625Z" fill="#BFD5E5"/>
<path d="M78.0552 34.7339H46.5576C46.1984 34.7339 45.9062 35.0261 45.9062 35.3852V41.3402C45.9062 41.6994 46.1984 41.9916 46.5576 41.9916H80.2228C79.7867 39.4574 79.0513 37.0259 78.0552 34.7339Z" fill="#CCDFED"/>
<path d="M80.5745 50.0864H31.8989C31.3593 50.0864 30.9219 50.5239 30.9219 51.0634C30.9219 51.603 31.3593 52.0404 31.8989 52.0404H80.3538C80.4469 51.3951 80.5205 50.7436 80.5745 50.0864Z" fill="#3D6687"/>
<path d="M79.5364 55.9482H31.8989C31.3593 55.9482 30.9219 56.3857 30.9219 56.9252C30.9219 57.4648 31.3593 57.9022 31.8989 57.9022H78.9292C79.1518 57.26 79.3543 56.6083 79.5364 55.9482Z" fill="#3D6687"/>
<path d="M48.2711 63.764H31.8989C31.3593 63.764 30.9219 63.3266 30.9219 62.787C30.9219 62.2475 31.3593 61.8101 31.8989 61.8101H48.2711C48.8107 61.8101 49.2481 62.2475 49.2481 62.787C49.2481 63.3266 48.8107 63.764 48.2711 63.764Z" fill="#3D6687"/>
<path d="M52.3999 68.8861C52.089 68.8861 51.7835 68.738 51.5939 68.4625C51.2881 68.0179 51.4009 67.4095 51.8455 67.1038L59.2955 61.982C59.6601 61.7315 60.1478 61.7567 60.4841 62.0447C60.8205 62.3325 60.9212 62.8103 60.7299 63.2093L60.1807 64.3547L61.7227 63.1641C62.0543 62.9081 62.5123 62.8917 62.8611 63.1241C63.2099 63.3561 63.3718 63.7848 63.2637 64.1897L63.0144 65.1222L68.5489 63.0239C69.0538 62.8325 69.6175 63.0863 69.8088 63.5911C70.0002 64.0956 69.7463 64.6598 69.2417 64.851L61.9247 67.6251C61.5819 67.7553 61.1952 67.6823 60.9233 67.4365C60.6557 67.1949 60.5434 66.8257 60.63 66.4765L58.1178 68.4164C57.7595 68.6929 57.2581 68.6873 56.9062 68.4027C56.5542 68.1181 56.444 67.6289 56.6396 67.2208L57.3846 65.667L52.9525 68.7141C52.7834 68.8303 52.5905 68.8861 52.3999 68.8861Z" fill="#3D6687"/>
</svg>
