<svg width="94" height="95" viewBox="0 0 94 95" fill="none" xmlns="http://www.w3.org/2000/svg">
<path d="M33.7371 27.8218L29.9043 23.981C29.0152 23.0901 27.8325 22.5996 26.5739 22.5996C25.3153 22.5996 24.1327 23.0902 23.2437 23.981L20.4654 26.7654C18.6365 28.5978 18.6365 31.5796 20.4654 33.4121L24.3063 37.2609C24.6819 37.6373 25.1746 37.8255 25.6675 37.8255C26.1589 37.8255 26.6506 37.6382 27.026 37.2638C27.7778 36.5135 32.9836 31.2906 33.7344 30.5414C34.4861 29.7912 34.4873 28.5737 33.7371 27.8218Z" fill="#CCDFED"/>
<path d="M47.3293 15.1802C46.2673 15.1802 45.4062 16.0412 45.4062 17.1032V23.2571C45.4062 24.3191 46.2673 25.1801 47.3293 25.1801C48.3914 25.1801 49.2524 24.3191 49.2524 23.2571V17.1032C49.2524 16.0412 48.3914 15.1802 47.3293 15.1802Z" fill="#15B7A0"/>
<path d="M52.0743 14.7954H42.5871C41.5251 14.7954 40.6641 15.6564 40.6641 16.7185C40.6641 17.7805 41.5251 18.6415 42.5871 18.6415H52.0743C53.1363 18.6415 53.9973 17.7805 53.9973 16.7185C53.9973 15.6564 53.1363 14.7954 52.0743 14.7954Z" fill="#CCDFED"/>
<path d="M68.1824 30.0023C62.613 24.4214 55.2076 21.3477 47.3306 21.3477C39.4536 21.3477 32.0483 24.4214 26.4788 30.0023C20.9104 35.5823 17.8438 43.0011 17.8438 50.8918C17.8438 58.7826 20.9104 66.2014 26.4788 71.7813C32.0483 77.3623 39.4536 80.436 47.3306 80.436C55.2076 80.436 62.613 77.3623 68.1824 71.7813C73.7508 66.2014 76.8175 58.7826 76.8175 50.8918C76.8175 43.0011 73.7508 35.5823 68.1824 30.0023Z" fill="#15B7A0"/>
<path d="M65.0153 33.1776C60.2924 28.4449 54.0127 25.8384 47.333 25.8384C40.6533 25.8384 34.3736 28.4449 29.6507 33.1776C24.9286 37.9094 22.3281 44.2005 22.3281 50.8918C22.3281 57.5832 24.9286 63.8743 29.6507 68.6061C34.3736 73.3388 40.6533 75.9453 47.333 75.9453C54.0127 75.9453 60.2924 73.3388 65.0153 68.6061C69.7373 63.8743 72.3379 57.5832 72.3379 50.8918C72.3379 44.2005 69.7373 37.9094 65.0153 33.1776Z" fill="#CCDFED"/>
<path d="M47.3263 28.7104C35.119 28.7104 25.1875 38.6609 25.1875 50.8917C25.1875 63.1226 35.119 73.0731 47.3263 73.0731C59.5337 73.0731 69.4652 63.1226 69.4652 50.8917C69.4652 38.6609 59.5337 28.7104 47.3263 28.7104Z" fill="#CCDFED"/>
<path d="M47.3278 31.2685C48.5271 31.2685 49.4993 30.2962 49.4993 29.0969V25.9398C48.7834 25.8778 48.0595 25.8442 47.3278 25.8442C46.5961 25.8442 45.8721 25.8778 45.1562 25.9398V29.0969C45.1562 30.2962 46.1285 31.2685 47.3278 31.2685Z" fill="#3D6687"/>
<path d="M47.3278 70.5146C46.1285 70.5146 45.1562 71.4869 45.1562 72.6862V75.8433C45.8721 75.9053 46.5961 75.9389 47.3278 75.9389C48.0595 75.9389 48.7834 75.9053 49.4993 75.8433V72.6862C49.4993 71.4869 48.5271 70.5146 47.3278 70.5146Z" fill="#3D6687"/>
<path d="M72.2423 48.7197H69.1325C67.9332 48.7197 66.9609 49.692 66.9609 50.8913C66.9609 52.0905 67.9332 53.0628 69.1325 53.0628H72.2423C72.3039 52.3469 72.3372 51.6229 72.3372 50.8913C72.3372 50.1596 72.3039 49.4356 72.2423 48.7197Z" fill="#3D6687"/>
<path d="M27.7122 50.8913C27.7122 49.692 26.74 48.7197 25.5407 48.7197H22.4309C22.3692 49.4356 22.3359 50.1596 22.3359 50.8913C22.3359 51.6229 22.3692 52.3469 22.4309 53.0628H25.5407C26.74 53.0628 27.7122 52.0905 27.7122 50.8913Z" fill="#3D6687"/>
<path d="M52.6958 49.6379H49.6321V40.8551C49.6321 39.6559 48.6599 38.6836 47.4606 38.6836C46.2613 38.6836 45.2891 39.6559 45.2891 40.8551V51.8094C45.2891 53.0087 46.2613 53.981 47.4606 53.981H52.6958C53.895 53.981 54.8673 53.0087 54.8673 51.8094C54.8673 50.6101 53.895 49.6379 52.6958 49.6379Z" fill="#3D6687"/>
</svg>
