<svg width="95" height="94" viewBox="0 0 95 94" fill="none" xmlns="http://www.w3.org/2000/svg">
<path d="M71.0996 16.9365H35.5546C30.9184 16.9365 27.125 20.7299 27.125 25.3662V28.2345H59.2783C63.9146 28.2345 67.708 32.0278 67.708 36.6641V57.6798H71.0996C75.7359 57.6798 79.5292 53.8865 79.5292 49.2502V25.3662C79.5292 20.7298 75.7359 16.9365 71.0996 16.9365Z" fill="#CCDFED"/>
<path d="M59.6621 27.8486H24.1171C19.4809 27.8486 15.6875 31.642 15.6875 36.2783V60.1622C15.6875 64.7985 19.4809 68.5918 24.1171 68.5918H45.4507C46.3653 68.5918 47.0481 69.4429 46.8388 70.3332C46.2731 72.7418 45.4074 75.2889 44.1276 77.9C43.5529 79.0727 44.8603 80.2648 45.9708 79.5775C49.1816 77.5904 53.7499 74.2646 57.5971 69.563C58.1029 68.9449 58.8635 68.5917 59.6621 68.5917C64.2984 68.5917 68.0917 64.7983 68.0917 60.1621V36.2781C68.0917 31.642 64.2984 27.8486 59.6621 27.8486Z" fill="#15B7A0"/>
<path d="M52.2949 70.3332C52.504 69.4428 51.8214 68.5918 50.9068 68.5918H45.4476C46.3622 68.5918 47.0448 69.4428 46.8357 70.3332C46.27 72.7418 45.4043 75.2889 44.1245 77.9C43.5498 79.0727 44.8572 80.2648 45.9677 79.5775C47.1996 78.8151 48.6316 77.8548 50.1458 76.6962C51.1224 74.5064 51.8165 72.3701 52.2949 70.3332Z" fill="#119E8A"/>
<path d="M21.1467 60.1622V36.2783C21.1467 31.642 24.9401 27.8486 29.5763 27.8486H24.1171C19.4809 27.8486 15.6875 31.642 15.6875 36.2783V60.1622C15.6875 64.7985 19.4809 68.5918 24.1171 68.5918H29.5763C24.9399 68.5918 21.1467 64.7986 21.1467 60.1622Z" fill="#119E8A"/>
<path d="M36.8288 34.5469H32.8195C31.9262 34.5469 31.1953 35.2778 31.1953 36.1711V39.5036C31.1953 40.397 31.9262 41.1278 32.8195 41.1278H34.9807C35.3312 41.1278 35.6154 41.4119 35.6154 41.7624V43.8728C35.6154 44.0997 35.8652 44.2385 36.0581 44.1189C37.5473 43.1955 38.4531 41.5678 38.4531 39.8156V36.1711C38.4531 35.2778 37.7222 34.5469 36.8288 34.5469Z" fill="#3D6687"/>
<path d="M47.4928 34.5469H43.4836C42.5903 34.5469 41.8594 35.2778 41.8594 36.1711V39.5036C41.8594 40.397 42.5903 41.1278 43.4836 41.1278H45.6448C45.9953 41.1278 46.2794 41.4119 46.2794 41.7624V43.8728C46.2794 44.0997 46.5293 44.2385 46.7222 44.1189C48.2113 43.1955 49.1172 41.5678 49.1172 39.8156V36.1711C49.1169 35.2778 48.3861 34.5469 47.4928 34.5469Z" fill="#3D6687"/>
<path d="M58.4366 49.7939H25.2758C24.7438 49.7939 24.3125 49.3626 24.3125 48.8305C24.3125 48.2985 24.7438 47.8672 25.2758 47.8672H58.4368C58.9688 47.8672 59.4001 48.2985 59.4001 48.8305C59.4001 49.3626 58.9687 49.7939 58.4366 49.7939Z" fill="white"/>
<path d="M58.4366 54.2255H25.2758C24.7438 54.2255 24.3125 53.7942 24.3125 53.2622C24.3125 52.7301 24.7438 52.2988 25.2758 52.2988H58.4368C58.9688 52.2988 59.4001 52.7301 59.4001 53.2622C59.4001 53.7942 58.9687 54.2255 58.4366 54.2255Z" fill="white"/>
<path d="M58.4366 58.6571H25.2758C24.7438 58.6571 24.3125 58.2258 24.3125 57.6938C24.3125 57.1618 24.7438 56.7305 25.2758 56.7305H58.4368C58.9688 56.7305 59.4001 57.1618 59.4001 57.6938C59.4001 58.2257 58.9687 58.6571 58.4366 58.6571Z" fill="white"/>
<path d="M50.1454 63.0888H33.5649C33.0329 63.0888 32.6016 62.6575 32.6016 62.1254C32.6016 61.5934 33.0329 61.1621 33.5649 61.1621H50.1454C50.6774 61.1621 51.1087 61.5934 51.1087 62.1254C51.1088 62.6575 50.6774 63.0888 50.1454 63.0888Z" fill="white"/>
</svg>
