<svg width="95" height="95" viewBox="0 0 95 95" fill="none" xmlns="http://www.w3.org/2000/svg">
<g clip-path="url(#clip0_4301_1024)">
<path d="M47.63 67.6897C58.7475 67.6897 67.76 58.6772 67.76 47.5597C67.76 36.4422 58.7475 27.4297 47.63 27.4297C36.5125 27.4297 27.5 36.4422 27.5 47.5597C27.5 58.6772 36.5125 67.6897 47.63 67.6897Z" fill="#CCDFED"/>
<path d="M37.8758 55.7733H47.1809C47.5992 55.7733 47.9389 55.2766 47.9389 54.78C47.9389 54.2311 47.5992 53.7868 47.1809 53.7868H39.1566V52.4538C39.1566 49.1866 47.7821 47.383 47.7821 41.7634C47.7821 38.8099 45.4297 36.6665 42.3977 36.6665C39.6009 36.6665 37.3008 38.4961 37.3008 41.136C37.3008 42.1031 37.6667 42.4168 38.2941 42.4168C39.0259 42.4168 39.4442 41.9986 39.4442 41.5543C39.4442 39.62 40.7249 38.7053 42.3978 38.7053C44.5934 38.7053 45.5867 40.352 45.5867 41.8419C45.5867 46.1545 36.8828 48.1673 36.8828 52.4538V54.9891C36.8826 55.4595 37.4576 55.7733 37.8758 55.7733Z" fill="#15B7A0"/>
<path d="M48.8573 51.3821H55.3918V54.9891C55.3918 55.5119 55.9406 55.7733 56.4895 55.7733C57.0385 55.7733 57.5874 55.5119 57.5874 54.9891V51.3821H58.9726C59.417 51.3821 59.7567 50.8594 59.7567 50.3366C59.7567 49.8138 59.4954 49.291 58.9726 49.291H57.5874V44.8999C57.5874 44.3771 57.0385 44.1419 56.4895 44.1419C55.9406 44.1419 55.3918 44.3773 55.3918 44.8999V49.291H50.8699L56.594 37.8949C56.6724 37.7641 56.6985 37.6596 56.6985 37.529C56.6985 37.0063 56.0451 36.6665 55.6269 36.6665C55.2349 36.6665 54.869 36.8495 54.6336 37.2939L48.1776 50.023C48.073 50.1799 48.0469 50.3628 48.0469 50.5196C48.0469 51.0424 48.3608 51.3821 48.8573 51.3821Z" fill="#15B7A0"/>
<path d="M65.4926 73.0171C65.2072 72.5849 64.6257 72.4664 64.1937 72.7519C58.489 76.5224 51.5757 78.2388 44.7264 77.5848C37.7869 76.9222 31.2453 73.8374 26.3069 68.8991C20.6174 63.2094 17.484 55.6447 17.484 47.5984C17.484 39.8749 20.3728 32.5966 25.6364 26.9929L27.1609 25.5458L25.7546 24.1177L24.3805 25.5901C18.7179 31.5583 15.6094 39.3393 15.6094 47.5984C15.6094 56.1456 18.9379 64.1809 24.9815 70.2248C30.2271 75.4704 37.1761 78.7469 44.5484 79.4511C45.5611 79.5477 46.575 79.5957 47.5867 79.5957C53.8422 79.5957 60.0104 77.7643 65.2276 74.3159C65.6594 74.0304 65.7782 73.4489 65.4926 73.0171Z" fill="#3D6687"/>
<path d="M77.7288 47.5984C77.7288 53.4453 76.072 59.0367 72.9843 63.8403L71.7444 65.9073L73.2911 66.9073L74.3983 65.1063C77.7844 59.9472 79.6033 53.9131 79.6033 47.5984C79.6033 39.0513 76.2748 31.0158 70.2311 24.9721C65.6588 20.3998 59.8961 17.3516 53.5663 16.1571C47.3875 14.9911 41.064 15.6491 35.28 18.06C34.8021 18.2592 34.5764 18.808 34.7755 19.2858C34.9746 19.7637 35.5234 19.9892 36.0014 19.7903C41.4466 17.5206 47.4004 16.9011 53.2189 17.9992C59.1766 19.1235 64.601 21.9931 68.9056 26.2977C74.5953 31.9874 77.7288 39.5521 77.7288 47.5984Z" fill="#3D6687"/>
<path d="M22.6853 21.4658L29.4674 21.8408C29.8512 21.8621 30.1451 22.1903 30.1238 22.5739L29.7488 29.3561C29.7347 29.6104 29.4202 29.7208 29.2502 29.5311L22.4564 21.9421C22.2864 21.7523 22.4308 21.4517 22.6853 21.4658Z" fill="#13B89B"/>
<path d="M68.977 62.2487L69.352 69.0308C69.3733 69.4146 69.7015 69.7085 70.0852 69.6872L76.8673 69.3122C77.1217 69.2982 77.232 68.9836 77.0423 68.8136L69.4533 62.0198C69.2635 61.85 68.9629 61.9943 68.977 62.2487Z" fill="#13B89B"/>
</g>
<defs>
<clipPath id="clip0_4301_1024">
<rect width="64" height="64" fill="white" transform="translate(15.6094 15.5957)"/>
</clipPath>
</defs>
</svg>
