<svg width="18" height="19" viewBox="0 0 18 19" fill="none" xmlns="http://www.w3.org/2000/svg">
<path d="M8.99991 0.709473C-2.5611 1.07554 -2.56385 17.8417 8.99991 18.2095C20.561 17.8434 20.5637 1.07722 8.99991 0.709473Z" fill="#32ACC8"/>
<path d="M13.8182 6.87289L7.76042 12.93C7.70241 12.9881 7.63353 13.0341 7.55771 13.0656C7.48189 13.097 7.40062 13.1132 7.31855 13.1132C7.23647 13.1132 7.1552 13.097 7.07938 13.0656C7.00356 13.0341 6.93468 12.9881 6.87667 12.93L4.18442 10.2378C3.60261 9.67314 4.50317 8.77201 5.06817 9.35401L7.31855 11.6043L12.9344 5.98914C13.4994 5.40714 14.4 6.30827 13.8182 6.87289Z" fill="#EEEEEE"/>
</svg>