<svg width="95" height="94" viewBox="0 0 95 94" fill="none" xmlns="http://www.w3.org/2000/svg">
<path d="M15.0469 36.5215V76.0092C15.0469 78.2492 17.0495 80.0658 19.5206 80.0658H75.3154C77.7865 80.0658 79.7891 78.2492 79.7891 76.0092V36.5215H15.0469Z" fill="#CBE5E8"/>
<path d="M79.7891 34.8976V38.7214H15.6512H15.0469V34.8976C15.0469 32.6576 17.0495 30.8423 19.5206 30.8423H75.3154C77.7865 30.8423 79.7891 32.6576 79.7891 34.8976Z" fill="#15B7A0"/>
<path d="M53.4119 56.9606L47.4986 59.5593C47.4932 59.5617 47.4871 59.5617 47.4817 59.5593L41.4834 56.9446C34.0723 53.714 29.3594 46.9191 29.3594 39.4645V21.2153C29.3594 20.7411 29.6859 20.3172 30.1772 20.1541L47.4172 14.4253L64.6571 20.1539C65.1483 20.3172 65.4749 20.741 65.4749 21.2152V39.5071C65.4749 46.9396 60.7898 53.7185 53.4119 56.9606Z" fill="#15B7A0"/>
<path d="M43.3851 53.3674C40.493 52.1066 38.0613 50.1385 36.3533 47.6757C34.6451 45.2129 33.7422 42.3735 33.7422 39.4644V23.7959C33.7422 23.4369 33.9893 23.1162 34.3611 22.9926L47.421 18.6528L60.481 22.9926C60.8527 23.1162 61.0998 23.4369 61.0998 23.7959V39.5072C61.0998 42.4076 60.2019 45.24 58.5031 47.6978C56.8042 50.1556 54.3845 52.1236 51.5054 53.3889L47.4922 55.1526C47.4884 55.1543 47.4841 55.1543 47.4803 55.1526L43.3851 53.3674Z" fill="#3D6687"/>
<path d="M45.6285 42.1733C45.1684 42.1733 44.7046 42.0423 44.3096 41.7716L40.9328 39.4571C40.6173 39.2408 40.5548 38.8335 40.7934 38.5473L42.5702 36.4172C42.8088 36.1312 43.2581 36.0746 43.5738 36.2909L44.65 37.0285C44.964 37.2437 45.4106 37.189 45.6504 36.906L51.7394 29.7178C51.9804 29.4334 52.4301 29.3798 52.7441 29.5982L55.0806 31.2246C55.3944 31.443 55.4535 31.8507 55.2126 32.1353L47.3669 41.3973C46.9357 41.9059 46.2858 42.1733 45.6285 42.1733Z" fill="#F9F7F8"/>
<path d="M72.3725 72.9156H22.6144C21.576 72.9156 20.7344 72.234 20.7344 71.3932V67.8573C20.7344 67.0165 21.576 66.335 22.6144 66.335H72.3725C73.4109 66.335 74.2526 67.0165 74.2526 67.8573V71.3932C74.2526 72.2339 73.4109 72.9156 72.3725 72.9156Z" fill="#3D6687"/>
<path d="M35.6535 61.4075H21.8213C21.2167 61.4075 20.7266 60.9632 20.7266 60.4152C20.7266 59.8672 21.2167 59.4229 21.8213 59.4229H35.6535C36.2581 59.4229 36.7482 59.8672 36.7482 60.4152C36.7482 60.9632 36.2581 61.4075 35.6535 61.4075Z" fill="#3D6687"/>
<path d="M30.5962 55.4417H28.2197C27.6151 55.4417 27.125 54.9974 27.125 54.4494C27.125 53.9013 27.6151 53.457 28.2197 53.457H30.5962C31.2008 53.457 31.6909 53.9013 31.6909 54.4494C31.6909 54.9974 31.2008 55.4417 30.5962 55.4417Z" fill="#3D6687"/>
<path d="M73.1651 49.4764H71.3916C70.787 49.4764 70.2969 49.0321 70.2969 48.484C70.2969 47.936 70.787 47.4917 71.3916 47.4917H73.1651C73.7697 47.4917 74.2598 47.936 74.2598 48.484C74.2598 49.0321 73.7697 49.4764 73.1651 49.4764Z" fill="#3D6687"/>
<path d="M73.1651 55.4417H71.3916C70.787 55.4417 70.2969 54.9974 70.2969 54.4494C70.2969 53.9013 70.787 53.457 71.3916 53.457H73.1651C73.7697 53.457 74.2598 53.9013 74.2598 54.4494C74.2598 54.9974 73.7697 55.4417 73.1651 55.4417Z" fill="#3D6687"/>
<path d="M73.1613 61.4075H59.3291C58.7245 61.4075 58.2344 60.9632 58.2344 60.4152C58.2344 59.8672 58.7245 59.4229 59.3291 59.4229H73.1613C73.7659 59.4229 74.256 59.8672 74.256 60.4152C74.256 60.9632 73.7659 61.4075 73.1613 61.4075Z" fill="#3D6687"/>
<path d="M66.7603 55.4417H64.3838C63.7792 55.4417 63.2891 54.9974 63.2891 54.4494C63.2891 53.9013 63.7792 53.457 64.3838 53.457H66.7603C67.3649 53.457 67.855 53.9013 67.855 54.4494C67.855 54.9974 67.3649 55.4417 66.7603 55.4417Z" fill="#3D6687"/>
</svg>
